/* XPM */
static char *closed_exit[] = {
/* columns rows colors chars-per-pixel */
"32 32 57 1 ",
"  c #1C1E3B",
". c #1F2443",
"X c #202645",
"o c #222A4B",
"O c #252F52",
"+ c #263054",
"@ c #283357",
"# c #29345A",
"$ c #2C395F",
"% c #2D3B63",
"& c #303E66",
"* c #303E68",
"= c #33436E",
"- c #354573",
"; c #374876",
": c #384A77",
"> c #374578",
", c #384779",
"< c #3A4B7C",
"1 c #3D507F",
"2 c #565655",
"3 c #585756",
"4 c #595856",
"5 c #57575A",
"6 c #585759",
"7 c #575859",
"8 c #5B5B5C",
"9 c #605F5F",
"0 c #4F5467",
"q c #4E546B",
"w c #525665",
"e c #565963",
"r c #5B5D62",
"t c #51576F",
"y c #55596A",
"u c #414E7C",
"i c #45527D",
"p c #48557D",
"a c #515870",
"s c #646363",
"d c #676866",
"f c #686867",
"g c #6D6D6C",
"h c #6F706E",
"j c #70706F",
"k c #737372",
"l c #777875",
"z c #787877",
"x c #7B7B7A",
"c c #7F807D",
"v c #3E4D82",
"b c #3E5082",
"n c #435485",
"m c #485682",
"M c #42558B",
"N c #45588D",
"B c #445990",
/* pixels */
"kkkgkxzxksffggggkhggsfgghhg99hhk",
"kkkkkzkkkgkgffghhhhghhhsdhss9fhh",
"kxxxkzxxkhhgs88889sgjlhhgs88shff",
"gkxxxxkkxgss88566689shhhdssggfjj",
"gghgkkxks9846634622649shjfhfffhh",
"ghhkkkgs824425eee266669shhhgfhjh",
"kkkkkgs8625eeqmmitee7228sffgfhjf",
"jhgfgs86650pmnBBNnmi07229shjkkhh",
"ggkks86630uMBBMBBMBb<04668shddsg",
"gxxks8230uMMbv,vbvBNMu0764ssgdhh",
"zkgs846wuMNn,--<<-nNNMu06289hjjh",
"xjfr33wpMMMb:%%:,-bvvMMie669ghgg",
"gfs826ynMv,<,%@@=1:--bBne228skzz",
"gj9626tnv,--:=+o+%$%-vBNt6269zxk",
"kh832epNv>>=::o...@=-,bNie668hkx",
"kg862enNvv<=-%. .O=1<,bBny669hhj",
"jd864enBv-<<=+. .===,<vBNe268kzz",
"jg864emBb,-=#o..+--=-,vNie268jgh",
"jk9865aNBv-%$%+o+=;=>>nMa866skzk",
"kg9826emBb:-:1=@@%:<,vMmy328skzk",
"gkg933euMNvvb-:;%%>bMNMue36rgkkk",
"fjg98260<MNBM-<<--,bBM<w568skkkk",
"jkjd98660uMNNvbn,vnMM<t663sgkkkj",
"kjxls86660uMMMBNMMBMu06338sjhhgk",
"fjjkhs86260uinNBBmmu0533rsgkkzkk",
"dgjfhfs9266eetimmtee5239sgkjgffg",
"ddhjghgs986635eee533368sgkgffjgf",
"fgjzkgkgs885622266368rsgkjgjks9f",
"kkhjdgjkkhs988682388ssfghhhg9sgs",
"gkhgjkhkkkxks88888sssghhkkhfgg9s",
"sgfkkhhkxxkfsgghggkkkhzckkhkfggk",
"kgkzhhkzxkgkxkkkkkkkghhkzhkkgfkg"
};
