/* XPM */
static char *closed_exit[] = {
/* columns rows colors chars-per-pixel */
"64 64 134 2 ",
"   c #1B1D39",
".  c #1D213E",
"X  c #1F2544",
"o  c #202645",
"O  c #222A4C",
"+  c #252E52",
"@  c #273156",
"#  c #283357",
"$  c #273359",
"%  c #2A355B",
"&  c #2B395E",
"*  c #2D3C63",
"=  c #2F3F69",
"-  c #303D65",
";  c #313F69",
":  c #2F406A",
">  c #32426D",
",  c #354473",
"<  c #374975",
"1  c #384A76",
"2  c #374578",
"3  c #39467B",
"4  c #374978",
"5  c #3B4B7C",
"6  c #3C507E",
"7  c #484647",
"8  c #494749",
"9  c #4D4C4D",
"0  c #504E4F",
"q  c #4F4E50",
"w  c #514F50",
"e  c gray33",
"r  c #555554",
"t  c #585754",
"y  c #5A5956",
"u  c #575759",
"i  c #595758",
"p  c #57585E",
"a  c gray36",
"s  c #5D5D5D",
"d  c #615F5F",
"f  c #60605E",
"g  c #61615F",
"h  c #4F5467",
"j  c #4E546A",
"k  c #525665",
"l  c #545865",
"z  c #5B5C61",
"x  c #51566C",
"c  c #55596A",
"v  c #585B68",
"b  c #454E72",
"n  c #414E7B",
"m  c #475074",
"M  c #4B5472",
"N  c #46517A",
"B  c #4B557B",
"V  c #515771",
"C  c #535972",
"Z  c #615F60",
"A  c gray38",
"S  c #646464",
"D  c gray40",
"F  c #686766",
"G  c #676866",
"H  c #696967",
"J  c #696768",
"K  c #6C6C6B",
"L  c #706F6E",
"P  c #6F706E",
"I  c #70716F",
"U  c #747473",
"Y  c #757573",
"T  c #747474",
"R  c #767676",
"E  c #787776",
"W  c #777876",
"Q  c #787876",
"!  c gray47",
"~  c #797978",
"^  c #7B7C7A",
"/  c #7C7C7B",
"(  c #7C7C7C",
")  c #7F807E",
"_  c #80807E",
"`  c #81827E",
"'  c #3C4A81",
"]  c #3D4B81",
"[  c #3D4F82",
"{  c #3E4E87",
"}  c #3D4E88",
"|  c #3E5282",
" . c #3F5483",
".. c #3F5186",
"X. c #3F538B",
"o. c #404E84",
"O. c #404F88",
"+. c #415183",
"@. c #425385",
"#. c #415187",
"$. c #415487",
"%. c #455787",
"&. c #485580",
"*. c #495680",
"=. c #485683",
"-. c #415887",
";. c #40528A",
":. c #445389",
">. c #435489",
",. c #41568A",
"<. c #44578B",
"1. c #41538D",
"2. c #43558C",
"3. c #45568C",
"4. c #43588D",
"5. c #45598E",
"6. c #435790",
"7. c #435A92",
"8. c #455B93",
"9. c #475D92",
"0. c #475F94",
"q. c #485C91",
"w. c #828280",
"e. c #838381",
"r. c #838482",
"t. c #848583",
"y. c #868786",
"u. c #878886",
"i. c #898A87",
"p. c #8B8D87",
"a. c #8E8F8B",
"s. c #8D908A",
"d. c #91938D",
"f. c #92948D",
/* pixels */
"I I U R R K K K K ~ ` ( ! Q ) R R ~ s s K G G G R s U K K K K K P I I I I K K K s G K G K K G K I L L I I G G i e S U Q H K U Q ",
"I I U R R K K K K ~ ` ( R Q ) R R ~ s s K G G H U s U K K K K K I I I I I K K K s G K G K K H K L L L I I G G i e S U Q G K U Q ",
"E E P R K ( ~ ~ R K U ~ R K K W ~ U U ~ U K K S K K K U U K P R I I I I P K K K I I K K U K S H H S S K K S s S S s s K K K I K ",
"R R ~ R / F U U U U w.K ~ ~ ~ K K U K S S K ` R S s s s U U U U U U U I W G I I K I I I I K S S r S f.S S S S S S s H H Q Q P P ",
"U U / U U U U S K U ` / s.w.T ~ ~ K U K w.W S K H S f a a a a a a a a f G S Q Q W Q ~ R P K K K H ` K y S S S e i H H Q K t i i ",
"U U R u.y.i.i.U R Q G U R w.a.w.U ~ K K S K ` A S S f u u u u u u u u a A A A U K R R U U K K ~ U K S F s 9 e i H P Q i G Q Q Q ",
"U R U R R / Q i.` _ R U S S R ( ~ R ~ R S G A A A A s u u u u u u u u a A a a A A S U U W K K K K 0 s e i G G K H P s G P U R U ",
"y i K Q R R y.( ( R ) ) R R S H R a.U A A A A a a i r r r r r r r r r e u u a A A A A ~ U K K K K H K K H K K P P K G K U U U s ",
"K K G G H S K U U / / U ` ` R R A A f f f S a u r r r r r r r r r r r r r r u a g g a A A S R ` U H S U W P K H P s G P K Q K U ",
"P P U R R U S S S U R / U U ` A A A A a a u r r r r r y y y y y y y y r r r r r u u a A A G A I R ~ G H H H G G K G K K U s U K ",
"P P H S R R R R U H G R / / A A A A a u u r r r r r r u a a a a a a u r r r u e u u u a A A A A R K ~ P P P P G K G K K Q K K t.",
"P P U U S S R R E R U G U A A S A u r r r t y y y y u l l c c c c l l u y y y y y r r r i A S A A U K G U K K P K G K K H ` K s ",
"P P U U U U R R R R R H a A A A a r r r r u u a a a l j m N B B N m j l s s s i u y r r r u A A A A U K s G K K K G J U K U K S ",
"K K U U U U R R R R R A A A A i r r r y u p l c c c x N #.X.2.2.X.+.N M c v c l z u y r r r u A A A A U I H G U s P U K U U a K ",
"Q Q R U G K e e K R A A A A u e r r y u p h m N B B B <.4.7.8.8.7.<.%.B B B N m h p u y r r r u A A A A U I K s K Q U U W U K K ",
"K I K K P H P K U A A A A i e e r y u p h b 5 { 2.>.5.5.9.q.q.0.8.8.<.<.2.;.{ 5 b j p u y r r r i A A A A U U I Q U U U U S K Q ",
"S S K I I I I K s A A A a r r r t y a h b 5 { 2.8.8.8.>.>.5.5.q.q.5.;.;.3.1.1...5 b h u u y r u e u g A A g w.u.^ R U W s s K K ",
"U U K I I I ( ( s A A u r r r y y a h b 5 { 2.8.q.8.5.#.| o.>.5.5.#.;.;.5.8.8.1.} 5 b h a y y e e u u A S A s 9 9 9 e s s K U i ",
"G G R / ( ~ ( ( A S z r r r y u a k b 5 { 2.5.5.5.:.O.' 3 3 O.>.2.#...;.>.5.5.5.1...5 b h a u y r r r z S A K ^ ( / U e U U K ^ ",
"I I Q ` w.` U A A A u r r y y a k b 5 { 2.5.5.2.#.] o.3 1 3 ] ;.#.| 5 | 2.5.5.5.5.1.{ 5 m h p y y r r u z A A y F F K K U U K K ",
"^ / R U R U d g A a u r e y a k b 5 { 2.8.5.>.| 3 3 3 2 , , 5 $.| 1 2 2 #.5.5.5.5.5.2.{ 5 b k i u y r i s A a a K K K w.K K U K ",
"U U U U K K a A A u y y y u k m 5 { 2.8.5.5.2.] 2 1 2 , : > 1 | | < : > 5 >.5.<.<.5.5.2.{ 5 b k p u r r u A A a R R R K Q R K K ",
"` ( E K S U a A a r t y s k m 5 { 1.5.5.5.5.>.| 1 > > : * : < 6 6 , * : 1 >.2.#...#.5.8.1.X.5 b l a y y r a A a Q K K R I I R R ",
"U R U U I a a f u r t u a j 5 { 1.5.<.2.#.#.2.$.5 > & & % - > , 1 1 < < 6 | 6 3 3 ] X.5.8.1.} N j z u r r u a A A Q R s s s s s ",
"U U S s a a A a e r r y z C B X.7.<.>.| 5 5 ....6 2 * % % % % * > 1 #.-.| 1 < 2 2 3 ] <.5.7.X.B C z u r r r a A A A U Q Q Q ` ) ",
"S S K U a s A u e r r y z C =.1.2.2.{ 3 2 2 < 5 5 < - % @ @ O O & , | %.1 > : > , 3 5 $.5.8.5.=.C z u r r r u g A s ~ ~ ~ ~ ~ ~ ",
"S H U / s A s e r r t y z C B 1.;.o.3 2 2 , > > 1 1 < = # O O O O & > > - * * * > 2 5 2.5.q.8.=.C s u y r r r a A s e.w.w.~ ~ ~ ",
"I L K U s s i e r r y a c B <.X.o.5 2 2 2 , > > , 1 5 > # o X O O O + # # # % * > 2 3 ] $.8.8.<.B j p y t r r u s i / / / w.U S ",
"( ( / s s y u e r y u k M B <.3.;.3 2 2 < < < > , 5 5 2 # X X o o o O O @ # & : , 2 3 3 ] 2.8.5.#.M k s y e e u a a K K K K E Q ",
"K K K R s s i e r y a x N X.7.5.;.3 2 5 < < , > > 5 5 > @ X . X o X X O @ * > 1 < 2 2 2 5 #.5.8.X.N j a i e u u a a T _ ` ( ` i.",
"W R U ` s u u e r y z x =.1.8.5.#.5 3 ] | 1 * * > 1 5 - O     . X X X + * 1 %.$.6 , , 2 5 ..5.8.1.B V z i y e u a a s e e S S S ",
"K K K s a a u e r y z C =.4.8.5.o.5 3 5 6 1 > > , 1 > % X       . X O % > 1 | | 6 5 < 2 3 ] 7.9.7.%.C z y e e u a a ` w.( R R ~ ",
"U U K y a a u r t y z C *.6.8.5.#.3 2 2 5 6 | | < > & O X .       o % > 1 , > > 1 6 5 3 5 o.5.q.7.%.C z y r r u a a y.e.t.~ T K ",
"U U H K a u u r t y z x *.1.8.5.#.3 2 , , 5 $.$.5 * @ X X X .     O - 1 1 > * * 1 | | 3 5 #.5.8.4.*.C z y r r u a a y W R ( e.( ",
"I I U Q a u u r y y a x N X.7.8.X.5 2 2 , < < , * $ O X X X X . X + > 5 1 > > > < 5 < 2 3 #.5.7.X.N j i u t r u a a W K G i G K ",
"I I K K a a u r t y u k M #.7.8.>.o.3 3 2 > > * $ + O O o o X X X # > 5 1 , > , < < 2 2 3 #.3.5.#.m l s y r r u a a U K W ~ K K ",
"K K K R a a a r r r y p x B 4.8.8.>.#.3 2 > * & $ # # + O O O X X # > 5 1 , > > , 2 2 2 5 o.;.<.B x p y y u e s a s ~ ~ R R ~ T ",
"I I e.R a A A r r r t u z C *.9.8.5.#.5 2 > * * * * > > & + O O O # - < 1 1 > > 2 2 2 3 o.;.1.=.C s i y r r e f A s R R R R R T ",
"/ / U K a A A u r r t y z C B 2.8.5.;.' 3 , > : > 1 | | < & + O + # % ; 1 5 5 4 2 2 5 5 2.4.1.*.C z i e r r u A A a R R R R K G ",
"K K G s a A A a r r r y z j =.X.8.5.>.| 5 2 2 1 1 | -.$.5 > * & % $ % * , 5 $...' 3 ] 2.5.8.X.B M z u e r r a g a A ( R ~ ( U ~ ",
"U U K ` t.A A s u r r y a k n { 1.5.5.2.5 3 3 | | 6 1 , 1 1 , > * % & * > 5 ..$.2.#.$.5.5.2.{ n j z i r e u a A a S R ( R R T T ",
"H H I U U Z a A a r t y s k b 5 ..2.8.5.2.{ #.$.2.5 > * , 6 6 1 * * * > , 2 ] 2.5.5.5.5.2.{ 5 b k s y y e a A A p.) G R R K T T ",
"S S U ~ / S a A A u y r y p h b 5 { 2.5.5.<.>.5.5.5 > : < | | 1 > ; > 2 2 2 ' >.5.q.5.>.{ 5 b h p u r r u A A a R ^ R R ( T R R ",
"K K K U S P A a A a u r r y a k b 5 { 2.5.5.5.5.5...< 2 5 |  .5 , , 2 3 3 5 ] >.5.8.3.} 5 b k a u t r u s A a a R R R S K T R K ",
"S S R S U K G g A A u r e y y p k b 5 { >.5.5.5.5.2.] 5 ] #.#.| 2 2 3 ] | o.$.5.5.1.{ 5 b h p y y r r u z A A R K K R K R R K U ",
"U U R ) U L S U a G z r u e y i y k b 5 O.3.5.5.5.3.2...$.$.2.%.3 3 ] #.;.5.5.5.1.o.5 b h a u y r r r a G A R R R R T U R K U G ",
"` ` H ~ ~ / U G a A A u r r u y i a j b 5 { 1.8.9.3...X.2.<.<.>.o.] #.5.q.q.8.2.;.5 b h a y y r r r u A S A R R R K s G K H G K ",
"H H H U ` w.a.^ a A A g a r e e e u a k b 5 { 1.>.1.;.2.5.q.0.<.3.2.<.8.q.8.1.X.5 b j p u y r r r u A A A A K K K U T I K U P ( ",
"I I / H K K U / P A A A A u r r r t y p h m 5 ..X.#.>.5.8.8.0.0.8.8.5.8.>.;.{ | m j l u y r r u u A A A s U U U U U ( y.( ( ^ ^ ",
"s s K ) K G K K ^ / s A A A u r r r y i p h m N B B B %.4.7.8.8.7.4.%.B B B N m h p u y r r r i A A A A S U U ( R H ~ R K G ( R ",
"K K G K Q G H G K U R s A S A u r r e y u p l c c c C N +.X.2.2.;.#.N M c c c l p u y r r r i A A A A K ( R K s K ~ K S s G K s ",
"S S K K K e.s G G K K K A A A A u r u e r u u a a s l j m N B B N m j l s s a a u r r r r u A A A A U U K U ~ ~ ~ K s i Q R s H ",
"K K S F U K p.S s K U K R A A A A i e e e y y y y y u l l c c c c l l u y y y y y r r r u A S S A K K ~ ~ U K K s i G U G K ^ ` ",
"S S G G t U K / K K K K R U A A S A s u i e e e e e e y a s a a a a u r r r r r y u u a A A A A / ` ` K K s i y G W U U e.K i 7 ",
"S S U G K ~ ^ ~ t.G K K R U U A A A A a s u e e e e u y y y y y y y y r r r r r u a a A A A A ) U K K U e H ( R t.U ~ K e 7 e ^ ",
"H H K K R U U U U R K K R U U I A A A a s A a u e e r r r r r r r r r r r r u a A A A A A A U K K U ~ K ( U H U K G s 9 S I U U ",
"Q Q S Q K H U U S P K K R U U U T U U A A A A a u u r r r r r e r r e e u u s A A A A e K K K R ~ K K I G U e.R s i H s K ~ H e ",
"U U I W K K ^ S K s K K G U U U T U U U S A A a a A a u u u a s u u u s A s a a A S K U s s K t K R R P S W K e s G e ` U S i P ",
"K K K R K R R s G Q U U S U U U R R U T E ( y.A S S A u u u u u a e i A A A A a s H s K P W G W F F R s p.U e i I U Q S S i H 8 ",
"K K R e.R I e R Q U ~ U I U S ~ R T T ~ y.` R R S A A a a a s s g a s A A S K H i K P U U G U U U w.t.~ K s K K / G H S i s i U ",
"Q R U U q e Q K U ~ U S I S U U R ( y.` R R K K i K W R R R ^ R R H P R H K K G ~ P I U U ` u.U s U K ) K K / Q i U U U g s U Q ",
"9 9 S H K U / Q ~ U S I U U Q R ~ ` R K K K S S s e G G i K K K K U U K ~ Q u.p.f.H S H S w.y.f./ U U d ~ K Q Q K S U i G / ) I ",
"K K K K U R R ~ U S I I U ~ R U ) R ( U S G U ~ w.u.R R U G U ~ T H K U T K I I K U U ( ( K R Q K U U K S s.U Q K 0 S R ` ` S S ",
"t.t.U K ( ~ / U S I I I U R R / R ( G G R ~ ~ U R ~ ~ ( ~ U K U ^ ~ K U U ( I G i K K G H K K Q ( U U Q U G U U R / e S ~ G U U "
};
