/* XPM */
static char *floor[] = {
/* columns rows colors chars-per-pixel */
"32 32 154 2 ",
"   c #5C5C5C",
".  c #5D5D5D",
"X  c #5E5E5E",
"o  c #5F5F5E",
"O  c #605F5F",
"+  c #606060",
"@  c #616161",
"#  c #626161",
"$  c #626261",
"%  c #636262",
"&  c #646463",
"*  c #646464",
"=  c #656464",
"-  c #656564",
";  c #656565",
":  c #666665",
">  c #676665",
",  c #666666",
"<  c #676666",
"1  c #676766",
"2  c #676767",
"3  c #686767",
"4  c #676867",
"5  c #686867",
"6  c #686868",
"7  c #696868",
"8  c #686968",
"9  c #696968",
"0  c #696969",
"q  c #6A6968",
"w  c #6A6969",
"e  c #696A68",
"r  c #6A6A69",
"t  c #6B6A69",
"y  c #6A6B69",
"u  c #6B6B69",
"i  c #6A6A6A",
"p  c #6B6A6A",
"a  c #6A6B6A",
"s  c #6B6B6A",
"d  c #6B6B6B",
"f  c #6C6B6B",
"g  c #6B6C6A",
"h  c #6B6C6B",
"j  c #6C6C6A",
"k  c #6C6C6B",
"l  c #6D6C6B",
"z  c #6C6D6B",
"x  c #6D6D6B",
"c  c #6C6C6C",
"v  c #6C6D6C",
"b  c #6D6D6C",
"n  c #6D6D6D",
"m  c #6D6E6C",
"M  c #6D6E6D",
"N  c #6E6E6C",
"B  c #6E6E6D",
"V  c #6F6E6D",
"C  c #6E6F6D",
"Z  c #6F6F6D",
"A  c #6E6E6E",
"S  c #6E6F6E",
"D  c #6F6F6E",
"F  c #6F6F6F",
"G  c #706F6F",
"H  c #6F706E",
"J  c #6F706F",
"K  c #70706E",
"L  c #70706F",
"P  c #71706F",
"I  c #70716F",
"U  c #71716F",
"Y  c #707070",
"T  c #707170",
"R  c #717170",
"E  c #717171",
"W  c #727170",
"Q  c #727171",
"!  c #717270",
"~  c #717271",
"^  c #727270",
"/  c #727271",
"(  c #737271",
")  c #727371",
"_  c #737371",
"`  c #727272",
"'  c #737272",
"]  c #727372",
"[  c #737372",
"{  c #737373",
"}  c #747372",
"|  c #737472",
" . c #737473",
".. c #747472",
"X. c #747473",
"o. c #747573",
"O. c #757573",
"+. c #747474",
"@. c #747574",
"#. c #757574",
"$. c #757575",
"%. c #757674",
"&. c #757675",
"*. c #767674",
"=. c #767774",
"-. c #767675",
";. c #767775",
":. c #777775",
">. c #767676",
",. c #777776",
"<. c #777777",
"1. c #777875",
"2. c #777876",
"3. c #777877",
"4. c #787876",
"5. c #787877",
"6. c #787977",
"7. c #797977",
"8. c #797A77",
"9. c #787878",
"0. c #787978",
"q. c #797978",
"w. c #797979",
"e. c #797A78",
"r. c #797A79",
"t. c #7A7A78",
"y. c #7A7A79",
"u. c #7A7B79",
"i. c #7B7B79",
"p. c #7A7A7A",
"a. c #7A7B7A",
"s. c #7B7B7A",
"d. c #7B7B7B",
"f. c #7B7C7B",
"g. c #7C7C7A",
"h. c #7C7D7A",
"j. c #7C7C7B",
"k. c #7C7D7B",
"l. c #7D7D7B",
"z. c #7D7E7B",
"x. c #7C7C7C",
"c. c #7C7D7C",
"v. c #7D7D7C",
"b. c #7D7E7C",
"n. c #7E7E7C",
"m. c #7E7E7D",
"M. c #7E7F7D",
"N. c #7F7F7D",
"B. c #7F807D",
"V. c #7F807E",
"C. c #80807F",
"Z. c #80817F",
"A. c #828280",
"S. c #848582",
/* pixels */
"! @.! n } v.0.0.+.= d 5 p G n n U U n d > g g d j U j o o U j X.",
"@.@.} X.} 4.@.X.} n n n 5 5 ! ! ! ! U n n U n > 5 n > $ + 5 U j ",
"@.f.v.4.@.4.v.v.+.G G } X.U j ! _ U X.X.! X.H n j 4 . . & j j g ",
"p ! 0.v.v.4.! X.f.@.G ! 4.v.@.p n U _ _ U X.U H 5 & & 5 j 5 U U ",
"j n G n ! 0.0.4.X.f.C.1.G ! 0.} g U X.X.X.U ! _ U j H g e j H U ",
"U n Y +.! ! @.0.1.! @.f.@.! p +.H U ! ! ! U ! H _ H j j g j U j ",
"U ! ! ! @.! p } 1.} ! X.0.0.@.+.n U U j d n U n _ _ d 5 d H U 5 ",
"! ! j 3 n } X.U X.1.! X.X.4.! ! 4._ n 5 d H U j 5 H X.U U X.H H ",
"d G ! @.! @.4.X.4.4.X.U @.9.! G X.U U G X.X.} n j g G n d > > d ",
"n 0.h.0.X.U 0.4.@.f.4.} ! @.@.! 5 p X.X.5 d n } ! U p 5 p d G n ",
"4.@.! G ! X.4.h.} X.*.4.! n ! ! 4.X.K U 4.X.} ! ! U H ! ! ! ! G ",
"0.! j n G ! ! 4.@.U U @.0.0.! @.X.1.4.4.X.f.h.v.v.h.4.@.@.n d j ",
"j n G X.} } X.X.! p j j U 4.d.v.h.4.4.4.4.X.! ! G @.v.f.0.1.1.9.",
"n ! ! ! 0.X.G j X.U U X.! ! n d j X.X.1.X.0.0.4.1.} n } 0.h.f.@.",
"X.! n d G X.n U @.4.4.0.0.@.@.! j > 5 4 n X.} } f.1.! n p Y } 4.",
"! n n U G j U 1.X.X.h.v.v.0.v.A.Z.h.1.U d n U p d ! 0.0.0.! Y ! ",
"! 5 3 3 p p } 0.+.@.+.Y ! } 1.f.0.h.v.v.+.G G } 1.1.+.} +.1.9.1.",
"U U U ! d } 1.@.@.G > p +.@.Y 1.4.@.1.h.C.x.+.Y A } +.1.+.Y A G ",
"U X.n n 1.0.1.p 3 G } G G } +.Y 0.v.v.0.0.x.x.f.+.G G Y <.+.+.+.",
"X.n X.f.@.1.G G ! 1.1.@.+.} 0.f.} 1.f.0.9.1.+.9.x.1.Y A Y 9.9.Y ",
"j ! @.! G n } f.1.Y 1.9.v.C.C.v.C.4.G ! f.0.@.+.+.f.x.f.+.+.+.+.",
"d U n G n A ! +.f.+.Y +.0.v.f.0.v.v.1.! @.f.9.1.} +.+.+.9.` +.+.",
"U U U n } G A A ! h.1.A ! @.f.0.1.@.f.1.n 1.0.9.+.+.+.+.Y Y Y G ",
"X.} f.4.! Y } } Y G f.@.n ! ! @.@.0.f.@.Y } 9.@.+.+.` +.! n Y Y ",
"5 U U _ 1.4.X.@.+.Y Y v.x.G 3 p @.@.X.} } X.! G n Y ! } } 1.! 9.",
"5 j U 5 j X.4.@.>.! Y +.v.C.1.p d j n U } } } } } Y } Y n 3 d d ",
"5 5 j X.j n @.X.>.+.! n G 9.S.C.! ! @.h.4.@.@.X.+.} p 3 d n p > ",
"5 j U 4.X.n X.} @.+.+.! ! A Y v.Z.Z.v.@.4.@.! X.} Y p } G > # 3 ",
"! ! G U d j ! X.@.@.9.@.@.@.! n n j n j 3 3 5 d U U ! p $ > d $ ",
"G @.n d U ! n ! @.0.x.0.0.0.0.} n p d & & j U G ! @.n > n d O $ ",
"> d d ! @.n ! @.0.0.Y A 7 Y U ! U U G @.X.G 1.C.} ! U X.p p d ! ",
"! n @.4.n U @.0.0.Y n @.9.@.U ! ! U @.! j G G 1.@.! X.@.p 3 @.n "
};
