/* XPM */
static char *opened_exit[] = {
/* columns rows colors chars-per-pixel */
"32 32 56 1 ",
"  c #1D1F3C",
". c #1D203E",
"X c #1F2341",
"o c #202543",
"O c #232C4D",
"+ c #252E51",
"@ c #263156",
"# c #273258",
"$ c #29355B",
"% c #2D3E65",
"& c #2F4167",
"* c #2F4268",
"= c #31426B",
"- c #354475",
"; c #374479",
": c #39467B",
"> c #3B497E",
", c #5E5E5E",
"< c #605F5F",
"1 c #5F6267",
"2 c #5E626C",
"3 c #656464",
"4 c #686867",
"5 c #62656C",
"6 c #66696D",
"7 c #6C6C6B",
"8 c #6F706E",
"9 c #70706F",
"0 c #616670",
"q c #656972",
"w c #6A6D74",
"e c #6B6F78",
"r c #6E7073",
"t c #6D727B",
"y c #737473",
"u c #777876",
"i c #787877",
"p c #71757C",
"a c #7B7B7A",
"s c #3E4D82",
"d c #404F84",
"f c #425186",
"g c #4C5986",
"h c #44548A",
"j c #46598F",
"k c #4B5C8C",
"l c #475A91",
"z c #485E94",
"x c #4F618D",
"c c #50638E",
"v c #4C6193",
"b c #4B6298",
"n c #526691",
"m c #546994",
"M c #747881",
"N c #7B7D80",
/* pixels */
"yyy7yaiay555vvjlllbv2667887,,97y",
"yyyyyuyytnvxs>>s>sssvbn247331497",
"yaaiyiNMvzjf>;-;-;->slbxw6,,4774",
"7yaaapmvs>::;-****-;;>shvx247499",
"7787tmbs:----%&&**----;>flxq4788",
"88rwnbs--====%%%&*%***-;>djx6797",
"9yrmbf;-=&=%%$$$$$%%**=;;:slcw94",
"99qbh;;==&$$$$$$$#@$%**=--:fgw89",
"7qvj:;-=&&$$$$$$#++#$%**%-->fg24",
"7nbf;-==&$#$$$#@+O+##%%**%-;sjcw",
"pvjf:=&&%$$$@@+OOOO+#$$%**=->hvw",
"txhs:=&&$$$@OOOOOOOO+$#%%*=;;dg0",
"vhf:-==&$$#@OOOOXOOOO#$$%**-;>dk",
"zhd:=&&$$$$OOOOOX XOO+#$$&*-;;sz",
"hfd;=%$$$$+OOOo.   OO+#$$%***-sh",
"jf:-=&$$$@OOOO.    OOO+$$%***;;>",
"hs:-=*%$$#OOOO   . XOOO#$%**--;;",
"fs:-==%$$#+OOX     XOO+#$%*=-->s",
"zf>-=*%$$$@+OOX .  XO+#$%%%=-:sf",
"vhs:-=%$$$#+OOOXOXXO+#$$%%%=-:dl",
"qfh>-%=%$$$#++OOOOOO+##$&*&=-:dh",
"5ghd>=*%$$$#+#OOOO++#$%%**&=-sfg",
"wcjd:%%%%$$$$#+++###$%%***=->fkq",
"ywxh>=*%%$$$$#####$$$%%*==-:hvwy",
"3yqjh;==*%%%$$$$$$$$%-%%=-;szpyu",
"379ch>;-%**%%$$#$%&%=%;%=->jx374",
"439tghd:-*=*%%%%======%:;>fg5973",
"779utcld>;;--%%%&&%---:%fjzr95<4",
"98887wxkd>:;-==*===-%ssdhnw73373",
"8y8799wwgjhh>---=--:sdhhwy7377<<",
"374yy899pnmkfd>:;;>fgknMy99y777y",
"y8yi89iiawwtzjsfs>hg5wwuyyyy73y9"
};
