/* XPM */
static char *opened_exit[] = {
/* columns rows colors chars-per-pixel */
"64 64 101 2 ",
"   c #1D1F3C",
".  c #1D203D",
"X  c #1F2341",
"o  c #202645",
"O  c #232C4D",
"+  c #242E50",
"@  c #263055",
"#  c #283157",
"$  c #273258",
"%  c #29345B",
"&  c #2B385F",
"*  c #2D3D64",
"=  c #2F4167",
"-  c #2F4269",
";  c #31426C",
":  c #354474",
">  c #374479",
",  c #39467B",
"<  c #3B497E",
"1  c #484647",
"2  c #494749",
"3  c #4D4C4D",
"4  c #504E4F",
"5  c #4F4E50",
"6  c gray33",
"7  c #595758",
"8  c #5D5D5D",
"9  c #615F5F",
"0  c #61615F",
"q  c #646464",
"w  c #686766",
"e  c #676866",
"r  c #696967",
"t  c #696768",
"y  c #6C6C6B",
"u  c #706F6E",
"i  c #6F706E",
"p  c #70716F",
"a  c #747473",
"s  c #757573",
"d  c #747474",
"f  c #767676",
"g  c #787776",
"h  c #777876",
"j  c #787876",
"k  c gray47",
"l  c #797978",
"z  c #7B7C7A",
"x  c #7C7C7B",
"c  c #7C7C7C",
"v  c #7F807E",
"b  c #80807E",
"n  c #81827E",
"m  c #3E4C82",
"M  c #3E5185",
"N  c #3F5188",
"B  c #414E84",
"V  c #425186",
"C  c #44548B",
"Z  c #45558D",
"A  c #45578C",
"S  c #43598C",
"D  c #435A8D",
"F  c #46598E",
"G  c #455C8E",
"H  c #475790",
"J  c #485792",
"K  c #455A92",
"L  c #475C92",
"P  c #475E94",
"I  c #485992",
"U  c #485C93",
"Y  c #495B94",
"T  c #485F96",
"R  c #4B5F99",
"E  c #476092",
"W  c #476194",
"Q  c #476294",
"!  c #486091",
"~  c #496094",
"^  c #496497",
"/  c #4A6399",
"(  c #4C619A",
")  c #4C639B",
"_  c #4B659A",
"`  c #4C669B",
"'  c #4B679D",
"]  c #4D679E",
"[  c #4E689F",
"{  c #4F67A0",
"}  c #4F68A0",
"|  c #828280",
" . c #838482",
".. c #848583",
"X. c #868786",
"o. c #878886",
"O. c #898A87",
"+. c #8B8D87",
"@. c #8E8F8B",
"#. c #8D908A",
"$. c #92948D",
/* pixels */
"p p a f f y y y y k n n f j n f f l 8 8 y e e e E [ } ~ ! ~ ~ ~ ~ ~ ! ~ ~ } [ E 8 e y e y y e y u u u a p e e 7 6 q a j r y a j ",
"p p a f g y y y y l c b f f c f f j 8 8 y e e r L P Q S S F F S F K L F F P ~ L 8 r y e y y e y u u p y p e e 7 6 q a j e y a j ",
"g g i f y c l l f y a l f y y l j f E _ ' ~ Q U F V m m < m m < < m V V m M S F K ! T ' _ L q r r q q y y q 8 q q 8 8 y y y p y ",
"f f l f z w a a d a | y l l l y y a _ [ ] / / K V , > > > > > > , , m m > > < S U / / { } ~ q q 6 q $.e q q q q q 8 r r j j i i ",
"a a z a a a a q y a n z #.| d l T ] ] ] / Y Y A m > > > > > > > > > , > > > > m A Y Y / [ _ _ ! r n y 7 q q q 6 7 r r j y 7 7 7 ",
"a a f o.X.O.O.a f l r a f | @.| S / T F V m m m > > > > : : : : : : > : > > > > m m m V F _ [ U f r e r 8 3 6 7 r i j 7 e j j h ",
"a j a f f z j O.v n f a E _ ] G M N m < < , , > > > > : : ; ; ; ; ; ; ; : > > > > > > < V K K C U [ _ U 7 e e y r i 8 e p a a a ",
"7 7 y j f f X.c c f n c _ } ] A < > > > > > > > > > : : ; - * ; = = - ; : : > > > > > : m B m V U ] ] U e y y i i y e y a a a 8 ",
"y y e e r q y a a x E _ _ _ K m > > > > > > > > > : : ; - = = = = = = - ; : : > > > > > > > > m C T T U ! ! y r i 8 e i y j y a ",
"i i a f f a q q q a ^ ] _ S < > > > : : : : : : : : ; = * * = - - - - - = ; : : : : : : > > > > m B B J _ U e r y e y y a 8 a y ",
"i i r q f f f f ! _ _ / S < > > > : : ; ; ; ; ; ; ; - * * * * - - - - - - - ; ; ; ; ; ; : > > > > < B C U J U U y e y y j y y ..",
"i i a a q q f f ~ } ] S < > > > : : ; = = - - - - - * * % % * * * * * * * * = - - = = ; : : > > > > m B B U R U y e y y r n y 8 ",
"i i a a a a ! _ _ ] U B > > > : : ; = = = - - - - * * % % % % & & % % % % * * ; - = = = ; : : > > > > < B A J U ~ ! w a y a y q ",
"y y a a a a E } ] F V < > > : : ; = = = * * * * * * % % % % % % % % % % % % * * - - - = = ; : : > > > > m B B Y ( G a y a a 8 y ",
"j g f a e y ~ { ( V < > > : : ; = - - * * % % & & % % % % % % % % % % % % % % * = - - = = = ; : : > > > > < B U T S a a h a y y ",
"y p y y i r ~ K A < > > > : ; - = - - * % % % % % % % % % % % % % % % @ @ @ % % * * - - - = = ; : : : > : > m C C V a a a q y j ",
"q q y p ! ! T V m > > > > : ; = = - - * % % % % % % % % % % % % % % @ + + + $ % % * = - - = = - ; ; ; ; > > > m B A C V 8 8 y y ",
"a a y p _ _ U m > > > > : : ; = = - * * % % % % % % % % % % % % % @ O O O + $ % % % * * - - - - * ; = ; : > > , m A J V 8 y d 7 ",
"e e L _ _ / A m > > > : : ; ; - - * * % % % % % % % % % % % % % @ + O O O + $ % % % % * = - - - = = = ; : > > > m A C C R ! y l ",
"p p E ] ] F F m , > : : ; = = - - * % % % % % % % % % % % $ $ @ + O O O O + @ % % % % % * * - - ; = = ; : : > > m m B R ] ~ y y ",
"z z L ] R C V B < : ; ; = = = - - * % % % % % % @ @ % % @ + + + O O O O O O + @ % % % % % * = - = = - ; ; ; : > , , B T { E a y ",
"a a Q / Y V V B < > ; = = - - - * * % % % % % $ + + @ @ + O O O O O O O O O O O @ % % % % % * * - - - = = ; : > , , m U P P y y ",
"n v E / K B V B < > ; = = - - * * % % % % % % $ + O O + O O O O O O O O O O O O + @ % % % % % * * - - = = ; : > > , m J U S f f ",
"a a U U J B B m , > ; = = - - * % % % % % % % @ + O O O O O O O O O O O O O O O O + $ % % % % % * - - = = ; : > > > m B C V 8 8 ",
"! L C C C B < , > : ; = = - - * % % % % % % @ + O O O O O O O O X X O + + O O O O + $ % % % % % * - - = = ; : > > > > m B B K ! ",
"[ ~ C B B m < : : : ; - - - * * % % % % % $ + O O O O O O + + O X . o O O O O O O + @ % % % % % * * - - - ; : : > > > > m A ~ _ ",
"[ ~ C B B B < > ; ; ; - - = * % % % % % % $ + O O O O O O + + O X   . X X o O O O O + @ % % % % % * * - - ; ; : : > > > m A ~ } ",
"L F V V V B < > ; = = - * * % % % % % % % @ + O O O O O O O O o X         X O O O O O + $ % % % % % * - - = = ; : : > > m V U ^ ",
"C V V V V B < > ; = = * * % % % % % % % @ + O O O O O O o X X . .         X O O O O O + $ % % % % % * - - = = = ; ; : > > m F ^ ",
"C V V V B m > > ; - - * % % % % % % % $ + O O O O O O O X     . . . .     X O + O O O + @ % % % % % * - - - = = = ; : > > < V F ",
"L F S B < , > : ; - - * % % % % % % % $ + O O O O O O O X       . . .     X O + O O O O + @ % % % % * - - - - = = ; : > > > < m ",
"U F C m > > > : ; - - * * % % % % % % $ + O O O O O + O X     . . . .     X o O O O O O O + $ % % % * - - - - = = ; : > > > : > ",
"C C V m > > > : ; = = - * * % % % % % $ + O O O O O + O X     . . . . . . . X o O O O O O + $ % % % * - - - - = = ; : > > > > > ",
"B V V m < > > : ; = = - - * % % % % % $ + O O O O O O o .     . . . . . .     X O O O O O + $ % % % * - - - - ; ; : : > > > > < ",
"B V V m < > > : ; = = - - * % % % % % $ + O O O O O o . . . . . . . . . .     X O O O O O + $ % % % * - - - = ; : : > > > > m B ",
"C C V m > > > : ; = = - - * % % % % % % @ + O O O O o .     . .     . . .     X O O O O + @ % % % % * - - = = ; : : > > > < B V ",
"L F C m > > > : ; = = - - * % % % % % % % @ + O O O O o .     . . . . . .     X O O O O @ % % % % % * - - - - ; ; : > , m B V V ",
"[ / A B < , > : ; ; ; - - * % % % % % % % $ + O O O O O o .   . X X .       . o O O + @ % % % % % * * - - - - - ; ; > < B C C C ",
"] T C B B m > > : : ; - - * % % % % % % % $ + O O O O O O o . X o o X     . o O O + @ % % % % % * * - - - = = ; : : : , B C F L ",
"! F V V C m , > > : ; - - * * % % % % % % % @ + O O O O O O X o O O o X X o O O O + $ % % % % % * - - - - = = ; : > > > m C F U ",
"a a V C A m m > > : ; = = - * * % % % % % % % @ + O O O O O O O O O O O O O O O O + $ % % % % % * - - - - = = ; : > > > m V C C ",
"r r B C C B m > > : ; = = - - * % % % % % % % $ + O O + O O O O O O O O O O O O + @ % % % % % * * - - - - = = ; : > < < B V A A ",
"q q B A A V B m , > ; = = - - * % % % % % % % $ + + @ @ + O O O O O O O O O O O @ % % % % % * * - - - - - = = ; > , m B V V C C ",
"y y F U J B B B < > ; = = - - * % % % % % % % % @ @ % % + O O O O O + + + + + @ % % % % % * = - - - - = = = ; ; > > < V K A V B ",
"q q U / Y B V B < > ; = = - - * % % % % % % % % % % % $ + O O O O + @ $ $ @ @ % % % % % * * - - - - - = = ; : : > > > V R L y d ",
"a f ! ! K Y A B , : - = = - - * * % % % % % % % % % % $ @ + + + + @ % % % % % % % % % * = - - - - = = = ; : : > , m m S K ~ a e ",
"n n r j T / Y B > : ; = = - - - * * % % % % % % % % % % % @ @ @ @ % % % % % % % % % * * - - - - - = = ; : : > , m A T L y r e y ",
"r r y a U T K B m > : ; - = = - - * * % % % % % % % % % % % % % % % % % % % % % % * = - - - - - - ; ; : : > > < V R / ~ y a i c ",
"p p x r y y C C C m > : - = = - - - * * * * % % % % % % % % % % % % % % % % % % * * - - - - - ; = ; : : > > > B K T z O.c c z z ",
"8 8 y c y e S T U B , > ; ; ; ; - - - - - * * % % % % % % % % % % % % & & % % * * - - - - - = * = ; : > > > > C ] T j a y e b f ",
"y y r y j e L ( T B , > > : : : ; * - - - - * * * * % % % % % % % % * * * * * * - - - - - - - - = ; : > > > m Y ] U y q 8 e y 8 ",
"q q y y y  .! T K A m > , , > : ; ; - - = = = - - = * % % % % % % * * - - - - = = = = = = - ; ; ; ; > > > m C H T T 8 7 j g 8 q ",
"y y q w a y @.q C C C B B m , > : : ; - * - - - - - * * % % * * * * - - - - - - = = = = * ; : : : > > > m A H C 8 7 e a e y z n ",
"q q e e 7 a y z B C U U A B , , > : ; ; ; ; ; - - - - * * * * - - - - - - ; ; ; ; ; ; ; ; ; : , , > > m A J A B r f a f  .y 7 1 ",
"q q a r y j z l ..w T R J B B m , > > : : : : : ; = - - * * = - - - - = = ; : : : : : : : > > , m m B C R T x f ..a j y 6 1 6 l ",
"r r y y a a a a d f ! T T Y Y V m > > > > , > : : ; - = = = = = - - = = = ; : > > > > > > > > m V K Y U / U w a y e 8 3 q p a f ",
"j f q j y r a f q u y y ~ ( T A B m > > > > > > : : ; = = - = = - - = = = ; : > > > > > > > > , B R _ ~ r a ..f 8 7 r 8 y j r 6 ",
"a a a j y y l q y 8 y y ! ~ U V V C m > > , , , > > ; ; ; ; ; ; - - ; ; ; ; : > > > > < , m m m m U / L q f y 6 8 e 6 n a q 7 i ",
"y y y a y f f 8 w f a a q a a a V A A m m B B m , : > : : : : : ; ; : : : : : > > > m B B V A m w w f 8 +.a 6 7 p a j q q 7 r 2 ",
"y y f ..f p 6 f g f j a u a q k V C K Q R P R Z m > > , > > > : ; ; : > > > > < m B A J U H C V f | X.j y 8 y y z e r q 7 8 7 a ",
"f f a a 5 6 g y a l a q a q a a f x U [ ] ( / L V m m m , > > > : : > > > > m B V V A T ( U O.a 8 a y c y y z j 7 a a a 0 8 f j ",
"3 3 q r y a z j l a q p a a g a c b U _ ] ~ ~ L C C C B < , , < < , > > < m V V V V V U ! U X.$.l f a 0 j y j j y q a 7 e z v p ",
"y y y y a f f l a q p p a l f a n f c a q e a z U U K V B m m B B m > < V K F V y a a c z y f j y a a y q #.a f y 4 e a b n q q ",
"....a y c l x a q p p p a f f x f z r q f l l a ~ / U V V V V C V m > m F ] U B 7 y y e r y y j c a a j a e a f g z 6 q j e a a "
};
