/* XPM */
static char *player[] = {
/* columns rows colors chars-per-pixel */
"64 64 205 2 ",
"   c #120B0B",
".  c #1D1715",
"X  c #18120E",
"o  c #241B16",
"O  c #2A1D15",
"+  c #241D1A",
"@  c #2A1E1B",
"#  c #221514",
"$  c #351D13",
"%  c #321B0C",
"&  c #3B200E",
"*  c #2C221C",
"=  c #2B2119",
"-  c #3C2213",
";  c #32231D",
":  c #382A1D",
">  c #382518",
",  c #2D2422",
"<  c #2E2924",
"1  c #332522",
"2  c #352A24",
"3  c #3A2C24",
"4  c #3C2D2A",
"5  c #342D2B",
"6  c #3D332C",
"7  c #3A3127",
"8  c #293232",
"9  c #3D3331",
"0  c #373935",
"q  c #241D20",
"w  c #451E0C",
"e  c #401F11",
"r  c #47230D",
"t  c #422312",
"y  c #452A17",
"u  c #4C2C17",
"i  c #5B2C15",
"p  c #5B361A",
"a  c #6B3819",
"s  c #422E27",
"d  c #483422",
"f  c #41332C",
"g  c #443324",
"h  c #423532",
"j  c #453A37",
"k  c #673F2B",
"l  c #69411C",
"z  c #49433D",
"x  c #5B4433",
"c  c #7A4825",
"v  c #6F4C30",
"b  c #453E40",
"n  c #3C4F54",
"m  c #335C68",
"M  c #484644",
"N  c #4C4B4C",
"B  c #594A44",
"V  c #504E4F",
"C  c #514F50",
"Z  c #595758",
"A  c #5D5D5D",
"S  c #545454",
"D  c #4F4E50",
"F  c #67554B",
"G  c #655E56",
"H  c #685853",
"J  c #645E5B",
"K  c #6A5E59",
"L  c #66615D",
"P  c #615F60",
"I  c #646464",
"U  c #686766",
"Y  c #676866",
"T  c #696967",
"R  c #6C6C6B",
"E  c #696768",
"W  c #776B67",
"Q  c #706F6E",
"!  c #7A6D6B",
"~  c #6F706E",
"^  c #70716F",
"/  c #7B716C",
"(  c #757574",
")  c #787675",
"_  c #777876",
"`  c #787876",
"'  c #7A7B7A",
"]  c #536F77",
"[  c #80411E",
"{  c #834722",
"}  c #8D5F2D",
"|  c #925C2C",
" . c #976A36",
".. c #B66A2C",
"X. c #BA792E",
"o. c #AB7436",
"O. c #B57736",
"+. c #C5752F",
"@. c #CA7A2F",
"#. c #C8782E",
"$. c #D0762F",
"%. c #C47432",
"&. c #D57530",
"*. c #D37930",
"=. c #D97430",
"-. c #C16D2F",
";. c #8B694E",
":. c #9F7849",
">. c #AD7A4B",
",. c #867D77",
"<. c #987677",
"1. c #7F807E",
"2. c #B58049",
"3. c #80807E",
"4. c #88837C",
"5. c #B78B71",
"6. c #DBAE7E",
"7. c #357384",
"8. c #7E7C81",
"9. c #917D83",
"0. c #A67884",
"q. c #3A91AD",
"w. c #518394",
"e. c #658792",
"r. c #4F96AF",
"t. c #6993A1",
"y. c #7AA8B7",
"u. c #5CA2BD",
"i. c #47ACD1",
"p. c #4CADD2",
"a. c #52AFD4",
"s. c #59B0D4",
"d. c #4CAACA",
"f. c #67B5D3",
"g. c #77BAD5",
"h. c #75B2C8",
"j. c #838482",
"k. c #8A8C87",
"l. c #8D8E8A",
"z. c #898687",
"x. c #978787",
"c. c #9C8B8A",
"v. c #97948E",
"b. c #9C9797",
"n. c #949691",
"m. c #8D908A",
"M. c #A9978C",
"N. c #A39998",
"B. c #AD8E8C",
"V. c #B4A39D",
"C. c #AAA39E",
"Z. c #B19EA2",
"A. c #96A5A9",
"S. c #AEABAB",
"D. c #B8A8A4",
"F. c #B4ADAA",
"G. c #B6ABA7",
"H. c #BBB9B7",
"J. c #B8B3AC",
"K. c #C9AFB1",
"L. c #C4B9B6",
"P. c #CFB292",
"I. c #E3C396",
"U. c #CBC2B7",
"Y. c #E6CAAE",
"T. c #EBD2AA",
"R. c #82B9CC",
"E. c #96B9C7",
"W. c #B0BCC0",
"Q. c #D1BCC2",
"!. c #89C1D7",
"~. c #9DC7D8",
"^. c #9EC2CE",
"/. c #A4CDDE",
"(. c #A9CFDD",
"). c #A3C9D6",
"_. c #ADD1DF",
"`. c #AEC1C5",
"'. c #A2CCE1",
"]. c #AED2E0",
"[. c #B5D5E4",
"{. c #B8D6E6",
"}. c #BBD8E4",
"|. c #DACDCE",
" X c #D8CCC8",
".X c #D5D1CC",
"XX c #DBCFD0",
"oX c #D0CACA",
"OX c #E5D9D2",
"+X c #F6EBD7",
"@X c #F8EED7",
"#X c #C9DFEA",
"$X c #F0DEE2",
"%X c #CEE2EA",
"&X c #EEEEEC",
"*X c #EDE9E4",
"=X c #F1EEEC",
"-X c #F2E9E4",
";X c #F2F1ED",
":X c #F8F3E5",
">X c #F4EFF0",
",X c #F4F3F2",
"<X c #F8F7F4",
"1X c #F9F9F6",
"2X c #FCFCFC",
/* pixels */
"^ ^ ( ( _ R R R R _ e.,.) ' ,.( _ ` A A R Y Y Y ( A ( R i.p.p.i.i.i.a.p.i.i.R R A Y R Y R R Y R ~ Q Q ^ ^ Y Y Z S I ( ` Y R ( ( ",
"^ ^ ( ( _ R R R R _ ,.,.) ) j.` _ ` A A R Y Y Y f.i.i.i.i.i.i.i.i.i.i.i.i.i.i.i.i.i.R Y R R Y R ^ ^ Q ^ ~ Y Y Z S I ( _ Y R ( ` ",
"` ` ~ ( R 8._ _ _ R ( ) ( R R ( ` ( ( ` ( R i.i.i.p.i.p.s.'.].{.{.{.].[.{.g.p.p.i.i.i.i.( R I U Y I I R R I A I I A A R R R ^ R ",
"_ ( ' _ ' Y ( ( ( ( e.W ' ` ' R R ( R I i.i.i.i.a.g./.[.{.{.{.{.{.{.{.{.{.{.{.[.g.s.i.i.i.R I I S I v.Y I I I I I A T T ` ` ~ ^ ",
"( ( ' ( ( ( ( I R ( ,.' l.,.,.) _ R ( i.i.p.a.A.H.{.[.{.{.{.{.{.{.{.{.{.{.[.{.[.h.A.y.p.i.i.R R Y 1.~ Z I I I S Z Y Y ` R Z Z Z ",
"( ( ( z.z.k.z.( ( _ Y ( ( e.l.,.( ' i.i.p.< + . G %X[.{.{.{.{.{.{.{.{.{.{.[.~.'.] . o + a.i.i.' ( R U U A N S Z T ^ ` Z Y ` ` ( ",
"( ( ( ( ( ' _ k.e.,.,.! I I ( j.' i.i.p.< 2 + o J 1X{.{.{.{.{.{.{.{.{.{.{.{.'.%XU # o 2 , i.i.i.R C A C Z Y Y R T ^ A Y ~ ( ( ( ",
"Z Z T ) ( _ z.' ,.) e.,.( ( I U i.i.a.@ 1 j W U ,.H.H.`.{.{.{.{.{.{.{.{.{.E.E.H.,.L W j , + a.i.i.U R R Y R R ~ ^ R Y T ( ( ( A ",
"R R Y Y U I R ( ) ' ' _ 3.3.( i.i.a.C.* . ( 2X1XU.. o M {.{.[.[.{.{.{.{.#Xr.q.m H.1X2X/ + + y.s.i.i.I ( ( ~ R T ^ A Y ^ R ( R ( ",
"~ ~ ( ( ( ( I I I ( ( ' ( ( i.i.a.].b.. @ / <X;XL.o * B {.{.{.{.{.{.{.{.'.i.i.i.i.R.1X! * + y.].p.i.i.T T T Y Y R Y R R ^ L ( R ",
"~ ~ Y I _ _ _ ( ( U U _ ' i.i.a.].].C.. O W <X,XoXh M G oXE.^.~.^.).~.~.E.p.i.i.i.i.i.( O o y.].[.i.i.i.~ ~ ~ Y R Y R R ( ~ R 4.",
"~ ~ ( ( I I _ _ ) ( ( U i.i.a./.].].b.* + / 1X=XOXF.K.M.; * * 4 4 2 < @ , b.h.p.i.i.i.i.8 + y.]._._.i.i.^ ~ R ~ R Y R R Y 1.~ A ",
"~ ~ ( ( ( ~ ( _ ( ( _ !.i.i.f.[.].].N.. + Q <X;XOXJ.P.5.t : > y d y : 1 , b.L.G.f.i.i.i.i.q y.]._.].f.i.i.Y R R R Y Y ( T ( T I ",
"R R ( ( ( ( ( ( _ _ ( i.i.a._._.].].b.< + / <X,XOX5.6.5.i i i a p p y 3 1 x.Z.N.OX~.i.i.i.i.y.]._._._.i.i.i.Y ( A ~ ( R ( ( A ~ ",
"` ` ( ( U R S S R ( R i.i./.[._._.].N.O = W ,X;XY.>.O.O...X.X.O.>.:.p 3 j h 6 9 oX,X'.i.i.i.d._.}._._.f.i.i.R A R ( ^ ( ( ( R R ",
"R R R E ( Y ~ R ( S i.i.a.#X_._._.].M.% - ;.:X+XY.o.#.#.#.@.@.@.O.>.p d f 7 6 5 H.,X,Xi.i.i.i._._._._./.i.i.i.^ ` ( ( ( ( I R _ ",
"I I R ^ ^ ^ ^ R ^ ' i.i.a./.].(.(.#XM.$ r  .T.T.6.X.@.*.*.*.@...>.:.p d g 6 6 , L.&X,XU i.i.i._._._._.~.i.i.i.j.' _ ( ( A A R R ",
"( ( R ~ ^ ^ ' ' ^ R i.i.) 8 0 9 f d x ;.}  .2.2.X.@.*.*.&.$.-.a a p u d g 6 6 6 j M M j n q.n f 9 9 0 5 e.i.i.N N D S A A R ( Z ",
"Y Y _ ' ' ' 8.' ( ~ i.i.U . < 2 > $ l  .o...@.@.@.$.*.*.&.+.O.a i d g g 6 f h f 6 6 6 6 7 g 3 ; 1 1 , , U i.i.' ' ' ( S ( ( R ' ",
"~ ^ _ j.j.j.( ( ' ' i.i.U , 1 2 y w k ....-.*.*.*.*.&.&.*.#.o.a d g 9 6 6 6 f f f f f 6 f f 3 2 2 2 1 = R i.i.Z Y R R R ( ( R R ",
"' ` ( ( ( ( ( ( R R i.i.g.g.~.Q $ w c X.-.$.=.&.$.&.&.=.=.+.O.p d f h 9 6 6 d f 6 f 6 6 6 f 3 1 * e.~.).g.p.i.' R R R j.T R ( R ",
"( ( ( ( R R R A ( ( i.i.f.!.g.9.$ w { +.&.$.=.&.&.&.$.$.&.@.o.i d f f 9 6 f g f f 6 h 6 6 f 3 ; * t.].(.a.i.i.R _ ( ( R _ ( R R ",
"3.3.( R I ( ( ( ( ( i.i.s.!.!.,.$ w c %.$.&.=.&.&.%.%.+.$.@.o.r > 3 6 h 6 f f f f 6 h f f f 3 2 O t._.'.a.i.i._ ' R R ( ^ ^ ( ( ",
"( ( ( ( Q R U I Y Y i.i.a.r.r.j > r c %.$.&.&.&...[ a { +.+.>.P.L.L.z 7 j 4 s 3 f 4 6 f f f 3 ; ; ] w.r.a.i.i.' ( ( _ A A A A A ",
"( ^ I A Y Y ( ( ( ^ i.i.U 8 0 ; - w c >.+.+.+.+.| r w a O.X.2.+X1X;Xz 6 f 1 1 2 6 f h h 6 f 2 1 1 < , 8 p.i.i.( ' ` ( ( ` ` 3.3.",
"I I R ( ( ^ 3.( ( ( i.i.U . o 1 : - v >.o.o.o.o.| r y i >.o.:.:X-X=X0 ; 2 2 1 2 2 , , 2 ; 2 3 2 ; , q . i.i.i._ ' ' ' ` ' ` ` ' ",
"Y Y ( ' ' ' R 3.j.3.( i.i.a.h.G ; $ ;.I.I.I.I.Y.5.- & x I.I.Y.+X,X&XF.F.D.M 1 @ 4.F.F.F.F.J.L * * w.R.i.i.a.' j.3.j.j.j.j.) ' ` ",
"^ Q R ( U ( ( ^ R j.` i.i.a.a.) * O <.,X@X@X+X:XU.O * x -X@X:X=X=X=X1X<X<XF * @ U.2X<X1X;X2X4.o + u.a.i.i.( I R R R ' ' ' j.( I ",
"' ' ' A U A A Y ' R j.( i.i.a.) +   ,.2X1X;X-X,XH.o . j ,X-X-X,X=X=X=X&X,Xz o . H.,X;X,X<X2X,.. X d.p.p.R A A ~ _ ( R R R R ( ` ",
"R R R ) _ _ ( Z L I R ' f.i.i.a.9.z.z.b.b.H.1X,XXX4.,.x.;X&X=XQ.Q.K.-X=X;Xv.4.,.XX,X;XH.v.v.x.z.4.p.i.a.' _ _ I A A ( ,.' j.,.k.",
"` ( ( 3.R ( ` l.' U R R R i.i.i.~.}.S.  . U 1X&X;X<X<X<X=X=X-X9.<.0.$X;X=X1X,X1X=X=X<XW #   y.].p.i.i.j.j.j.z._ _ _ G S S I I I ",
"R R R A R R U R R ' ( Y ^ ( i.i.i.'.n.  o ! 2X1X,X;X<X<X<X<X-X0.0.0.$X,X=X<X1X,X1X1X2X/ * @ y.i.i.i.R I Y _ _ j.j.j.,.e.8._ _ ' ",
"( ( R Z I Z Z Z U Z ( R I ' _ f.i.i.H.W ! 9.F.S.D.D.D.G.|.XX XB.B.B.Q.XX|.F.F.D.G.G.J.F ; o i.i.i.' ' ( ( R R I ( 8.z.j.j._ ( R ",
"( ( R R R _ R R Y 3.( A e.^ _ _ R.i.p.f./.F.# o + ; @ f x.9.9.K.K.K.x.9.c.4 o * O O O m w.i.i.s.` ( ( 3.` _ _ _ R R Z _ _ 8.j.' ",
"R ~ ( _ R Y ( _ ' S M ( ,./ ' ~ ( f.i.i.a.F.o 2 ; ; ; h c.x.B.Z.D.D.c.c.c.h * ; 1 3 1 p.i.i.d.( ( R ' ` _ _ ' ( ( R ` R Y Z Y R ",
"~ ~ R R ( ' ' _ S U j.k.4.Q R ' ` ` R.i.i.p.d.m 4 B B H c.B.N.L.L.Q.N.N.N.F B B S i.i.i.i.m ( U I ( R ( _ ( ( ' _ ` ( R _ _ R R ",
"R R R ( ' Y A A ' ' j.I Y j._ R R ' P X p.i.i.i.i.a.a.s.R.S.G.,X>X&XH.F.D.S.h.p.i.i.i.i.1 + 4.,.( I U R R R I ( ( _ ' _ _ ( ' ( ",
"~ ( j.( I Y Y _ j.1.( j.j.' R C C S ( o ; m i.i.i.i.i.i.i.i.p.a.a.a.a.p.i.i.i.i.i.7.2 3 2 + ) e.' ( ( ( ( ( _ R ( ( ( _ ( _ ( ( ",
"' ' ( R Y 1.' l.R U j.j.' Y I ( ( ( ` @ 1 ; 2 * B E.i.i.i.i.i.s.a.a.a.i.i.p.p.W.B ; 3 : > O ' 9.3.j.( U I I ( ( Q 8.( ( ( ( R Y ",
"R R Y A _ ( j.Y _ 3.( Y Y I ( ( ` ` ` o 2 ; 2 O K 1X=X=X;X;X*X,X&X,X&X&X=X=X=X,XK ; 3 : : O R ( ' 3.k.` ( ( I I ( Y 8._ _ 8.( _ ",
"( ( R 1.j.j.( _ _ I Z ( ( _ ' z.` ( ` o ; : 2 = G <X;X&X=X;X&X;X&X&X,X,X;X;X;X;XG * : > : O ( R _ _ ( ( 3.x._ ( I I ( 8._ ( ( ( ",
"U Y ~ ( ( L I R I ( ( R R ' 8.( ` ( J * ; 3 ; ; G <X=X;X;X;X&X;X&X,X&X;X&X=X;X;XK ; > y u > _ ( R ( ( l.) ) e.z.k.8.E _ ( R ( ( ",
"U I ( _ ' I ^ ( ( ( ( ( ' _ R _ < 5 9 6 f 3 : ; G <X;X;X;X&X&X&X&X,X,X&X;X=X;X=XK ; - v >.>.v g < R ` ( ( ` ( 8._ ' _ ( 8.( ( ( ",
"R R R ( I ^ _ Y Y Y U Z R ( _ _ + 2 1 6 6 3 ; * G ;X&X&X&X,X&X,X&X;X,X,X,X;X;X<XG ; - } O.>.c - O ( R ( ( R R R ( _ ( I R ( ( R ",
"I I ( U ( R Y ( ( ( ( R U A R ( @ 2 4 6 f 3 ; * G ;X*X&X=X&X&X;X&X=X&X&X=X;X;X1XG > t | +.+.{ e = ( ( ) ( ( ( ( R R _ R ( ( R ( ",
"( ( ( 3.( R Y ( ( ( ( ( _ ( U A , 2 4 f f 4 1 * G ,X;X.Xj z B *X;X&XS b j .X;X,XG > t | +.#.{ y ; ( _ R ( ( ( ( ( _ ( ( ( R ( E ",
"1.3.Y _ ' ' ^ Y Y ( ' ` ( _ ( ( 1 2 4 f f 3 1 * G ,X;X.X, * 9 *X;X&Xj , *  X:X>XH > w } O.O.c t @ ( ( ( ( ( _ ( ( R A Y R R I R ",
"U U R ( 3.j.m.' ' U U E Y _ ( ( 1 1 4 f f 3 ; * G ,X;X|., 2 f =X;X*Xh ; > Y.+X+XF $ - } 2.>.c > ; ( ( ( ( R R R R ( ( ^ R ^ ^ 8.",
"^ ^ 1.U R R ( ' ~ ' 3.3.( ( _ ( 1 ; B ,.,.K ; * G ,X;XXX, 3 4 L.L.L.g : % 2.5.5.x $ $ ;.5.5.v $ 1 ( ( ( ( ( ( ( ( ( ' z.' ' ' ' ",
"A A R 1.R Y R R ' 1.( ( 1.Y ( _ 2 1 H c.B.W ; * G ,X;XXX< 2 f Z.D.D.s - &  .o.:.p > $ ;.5.5.F $ 1 I U T I ( ( ' ( R ) ( R Y j._ ",
"R R Y R ( Y T Y R ( ( ' ( 3.U _ + * F N.M.W @ ; K ,X;XXX2 ; j D.L.G.h - r  .X.O.a - $ W M.M.F = @ ( ( R ' _ T A R ' R I A Y R A ",
"I U R R ~ j.A U Y R R R ' ( 3.( ( ( ( z B j 1 * K <X,X|.1 1 2 F F H 7 r u  .X.O.l t 1 j B k ( ' ' ( ( ( R ( ' ' ( R A Z _ ( A Y ",
"R R I Y ( R k.I Z R ( R ( ( ( ( _ ( ( q * ; 1 * G 1X,XXX, 1 1 ; * @ 1 y r  .O.>.a & ; 1 2 O ` R R R R ' ` ( R R A Z U ( Y R ' e.",
"I I Y Y Z ( R ' R R R R _ ( ( U ( ( _ q + * 1 * J <X,X|.1 4 1 ; + 2 1 : r  .O.>.p - 3 , * o R R ' j.3.R T A Z Z U ( ( ( j.R H z ",
"I I ( Y R _ ' _ j.Y R R ( ( ( R _ _ ( ( ( ( * * J <X>X|., 2 ' n.( ` T ; : M.P.I.v > ; ' R ( ' 3.( R R ( S R ' ( j.( ' R S M S ,.",
"Y U R R ( ( ( ( ( ( R R ( ( ( ( ( ( ( ( ( ( * , J <X,XXX, ; ( ( l.l.l.1 1 Y.:X:XF O * _ ` ( ( R T ) ' R ' ( Y ( R Y A N U R ( ( ",
"` ( I ' R Y ( ( I ~ R R ( ( ( ( ( ( ( ( ( ( + + L 2X1XOX2 3 I U ` ` ` 2 1 OX<X<XH o + S R R R ( ' R R ^ U ( j._ A Z R A R ' Y S ",
"( ( ^ _ R R ' U R A R R Y ( ( ( ( ( ( ( _ ( _ ' ) N.D.c.1 * ( ( I S S 2 2 c.V.C.R I R ~ A A R Z R ( _ ~ I ( R S A Y S 1.^ I Z ~ ",
"R R R ( R ( ( A Y _ ( ( I ( ^ ( ( ( ( ( _ ' z.' ,.+ * + , 2 R R ` ( ( 1 2 @ o + A U A R ~ _ Y ( U U _ A k.( S Z ^ ( _ I I Z R M ",
"R R _ j.( ^ S ( _ ( ` ( ~ ( I ` ( ( ( _ j.8._ _ 8.@ , , , , ( ( R R A @ 1 , 1 q S R ~ ( ( Y ( ( ( j.j.` R A R R ' Y Y I Z A Z ( ",
"( ( ( ( D S ` R ( ( ( U ~ I ( ^ / ' z.1.` ` R T Z R ( _ _ ( ' _ ( R ~ ( E R R U _ ~ ~ ( ( 3.j.( A ( R ' R R ' ` Z ^ ( ( I A ( _ ",
"D D I U R ( ' ' ` ( I ^ ( ( ` ( ,.e.( R R R I I A S Y Y S R R R R ( ^ R ' ) z.l.n.Y U Y Y j.j.n.' ( ( L ` R ` ` R I ( Z U ' 1.~ ",
"R R R R ( _ ( ( ( I ^ ^ ( ' ( ( 9.( ' ( I E ( ' e.z._ _ ( Y ( ' ( U R ( ( R ~ ~ R ( _ ' ' R ( _ R ( ( R I m.( _ R V Y ( 1.1.I I ",
"j.j.( R ' ' ' ( U ~ ^ ^ ( ( ( ' _ ' Y U ( ` ) W ,.' _ ' _ ( R ( ' ' R ( ( ' ~ Y Z R R T U R R ( ' ( ( _ ( I ( ( ` ' S I _ Y ( ( "
};
