/* XPM */
static char *player[] = {
/* columns rows colors chars-per-pixel */
"32 32 206 2 ",
"   c #3A2619",
".  c #38251A",
"X  c #342620",
"o  c #352923",
"O  c #3A2B24",
"+  c #362D29",
"@  c #3B2F2A",
"#  c #3E322C",
"$  c #3B322B",
"%  c #3E3532",
"&  c #3B3B3A",
"*  c #393633",
"=  c #492919",
"-  c #422718",
";  c #4D311F",
":  c #5B351C",
">  c #54331B",
",  c #65391B",
"<  c #412E22",
"1  c #41332C",
"2  c #4A3629",
"3  c #5E3B20",
"4  c #533926",
"5  c #423731",
"6  c #443935",
"7  c #483D38",
"8  c #6D411E",
"9  c #4B403C",
"0  c #594535",
"q  c #644226",
"w  c #734A26",
"e  c #644734",
"r  c #363F41",
"t  c #3A535D",
"y  c #334951",
"u  c #3C5A64",
"i  c #3E6977",
"p  c #4C4542",
"a  c #4F4946",
"s  c #534A46",
"d  c #524E4B",
"f  c #584F4B",
"g  c #5C4940",
"h  c #5C514B",
"j  c #55524F",
"k  c #4B5558",
"l  c #555251",
"z  c #5D5E5E",
"x  c #5B5452",
"c  c #625248",
"v  c #635954",
"b  c #615E5D",
"n  c #635756",
"m  c #725A46",
"M  c #776459",
"N  c #6A605A",
"B  c #615F62",
"V  c #46636D",
"C  c #416775",
"Z  c #656564",
"A  c #6A6764",
"S  c #696867",
"D  c #6C6D6B",
"F  c #676867",
"G  c #716E6D",
"H  c #796B67",
"J  c #6F706E",
"K  c #70706F",
"L  c #7C716B",
"P  c #6A6F70",
"I  c #6E7373",
"U  c #63757A",
"Y  c #69767A",
"T  c #6E797C",
"R  c #737372",
"E  c #7A7774",
"W  c #777876",
"Q  c #797877",
"!  c #757A7B",
"~  c #7B7C7A",
"^  c #707778",
"/  c #855328",
"(  c #935A2B",
")  c #A05A26",
"_  c #9A683A",
"`  c #B9702E",
"'  c #B7722F",
"]  c #AD7339",
"[  c #BB7636",
"{  c #AF642A",
"}  c #CC762F",
"|  c #CF782E",
" . c #C1742F",
".. c #C97A35",
"X. c #D47630",
"o. c #D27830",
"O. c #D3742F",
"+. c #816E5E",
"@. c #A77647",
"#. c #84756C",
"$. c #847874",
"%. c #AF845A",
"&. c #88817E",
"*. c #B68E70",
"=. c #AC856A",
"-. c #CA8A49",
";. c #CEA578",
":. c #3A6E81",
">. c #5A7A86",
",. c #467F92",
"<. c #707D80",
"1. c #637E87",
"2. c #3F869F",
"3. c #5D818D",
"4. c #558A9E",
"5. c #5A8D9F",
"6. c #45849C",
"7. c #62828C",
"8. c #6B8087",
"9. c #768083",
"0. c #678995",
"q. c #738992",
"w. c #69909E",
"e. c #428BA5",
"r. c #5B8FA1",
"t. c #5494AC",
"y. c #5E92A4",
"u. c #499AB7",
"i. c #5599B3",
"p. c #509FBC",
"a. c #599DB5",
"s. c #4592AE",
"d. c #6595A7",
"f. c #6A9EB2",
"g. c #4DA1BF",
"h. c #55A1BD",
"j. c #72A3B6",
"k. c #6DA4B8",
"l. c #4DA4C4",
"z. c #4BA8CB",
"x. c #52A5C4",
"c. c #53AACA",
"v. c #5DAFCE",
"b. c #5FA7C3",
"n. c #4DAFD3",
"m. c #44ACD2",
"M. c #56B1D4",
"N. c #5EB3D3",
"B. c #64AAC4",
"V. c #70B1CA",
"C. c #69B7D5",
"Z. c #7ABFDB",
"A. c #7EC1DC",
"S. c #9B9592",
"D. c #9C9897",
"F. c #8D8C8D",
"G. c #AF9492",
"H. c #A5A19D",
"J. c #A8A39E",
"K. c #94ADB6",
"L. c #ACA5A2",
"P. c #A0A0A2",
"I. c #B6A6A5",
"U. c #B7A8A7",
"Y. c #BBB6B2",
"T. c #B6B3AF",
"R. c #D5B996",
"E. c #C5B9B8",
"W. c #D8C2A7",
"Q. c #D5C2B3",
"!. c #E8D2B4",
"~. c #81AFC1",
"^. c #8AB8CA",
"/. c #96B9C5",
"(. c #85BCD3",
"). c #8DC8DE",
"_. c #95C9DE",
"`. c #9CCEDF",
"'. c #99C6DA",
"]. c #AFC0C8",
"[. c #A9CBD9",
"{. c #B0CCD9",
"}. c #B2D1DD",
"|. c #9DCEE1",
" X c #ABD1E2",
".X c #A1D2E2",
"XX c #B5D6E5",
"oX c #B9D6E6",
"OX c #B9D9E8",
"+X c #CBC8C6",
"@X c #D6D1CF",
"#X c #DCCFD0",
"$X c #D9D3D2",
"%X c #DDDAD6",
"&X c #E4DEDC",
"*X c #E8DBDD",
"=X c #E2D5C8",
"-X c #E5E2DF",
";X c #ECE1D2",
":X c #E5E4E1",
">X c #E9E6E3",
",X c #ECEAE7",
"<X c #F2EEEC",
"1X c #F3F1EE",
"2X c #F4F4F1",
"3X c #F8F5F1",
/* pixels */
"R R R D R ~ W ~ R Z F U 5.t.c.M.M.M.n.t.4.U D S G G D z z D D R ",
"R R R R R ! E R R Y r.x.C.Z._.[. X X|.(.N.x.3.Z F G F z b D J D ",
"W Q ~ Q R E ~ $.! i.2.V K.oXoXoXOXOXoX[.1.i u.3.D F z z Z D D D ",
"D R W ~ ~ ! R T a.6.& h S.].oXoXoXOX[./.D 7 t l.>.Z Z D D F R G ",
"D D K D R R ! i.C.z h %XE d {.XXoXoX(.u./.D.+ k.c.3.D D F F D K ",
"J K K R R T i.C.[.B h >XL.#.R Y <.Y 0.v.n.a.r K.).l.Y D D D R D ",
"K R I K R w.M.|.}.N x >XE.*.: > >   n P.(.m.e.^. XC.t.D D J K F ",
"K K D F J u.A.XX}.v c ;X;...` ' _ 4 5 f +X|.m.A.XX`.z.7.K R K D ",
"D D R R Y l.0.8.9.m ( ;.-.} o.{ w > < 5 &.9.,.3.9.8.g.5.A F F D ",
"J W ~ W ! g.k * - / '  .| X.| ( 4 1 # 1 $ # # + + & 4.4.D F J D ",
"W R R K ^ x.V.q.= ( } X.X.X.| / < 5 # 1 # # $ X k /.v.5.G R K K ",
"Q K D D T x.h.>.= ) O.O.{ )  .@.L 9 # # # # $ X k j.n.y.R D D D ",
"D D D R ! p.V * - ( [ [ w 3 ] R.-Xh # o % 6 6 + + y l.d.W W W W ",
"D R R R W d.l.>.O G.!.!.M 4 W.;X,X+X&.+ H.+XQ.a t p.t.^ W ~ ~ R ",
"R R D D D <.c.i.B D.+X<XD.L -X*X#X1XT.A $X:XY.R ,.c.T D D K R E ",
"R D D K D D 7.c.(.A v >X,X>X1XE.G.;X,X-X1XU.% f.c.7.W W W R K R ",
"R D F F D D I q.v.f.F.P H #.I.I.G.U.S.H H Z i p.0.R R R R Q ~ W ",
"D D R R Z R Q R q.x.b.u 6 s F.I.E.G.H 9 t e.s.1.K R R R R R P D ",
"R R P D W ~ Q D Z k :.u.u.x.k.(.'.~.j.h.s.i & K R P D R R W E R ",
"R D R ~ R R K K R a X & F..X`.|.|.|.|.[.j . O G &.W R D K W W R ",
"D R R R K D R Q K p . X L.2X1X<X1X2X1X:Xc   < B R ~ $.<.R R W R ",
"D D D D D D R D 6 @ @ X H.2X2X1X1X2X2X:Xf 3 @.q d ! R R ! R R R ",
"J R R D R R G A + @ @ X H.*XS.+X>XP.E.:Xc w ` , s R R R R K R G ",
"R R ~ W K R R S @ 5 1 X H.@X5 F.%X7 #.=X0 q ] 3 s W R R K P G K ",
"F R D R R Q W D @ M H + L.@X6 #.T.2 w %.4 e =.4 a G R R R W R W ",
"F D R F D R W K x A n o L.@X6 c #.1 w ' : 7 M v b R R K P Z D S ",
"F F D R D K R R Q l o o L.@X6 @ @   w @.: O 5 S R R D S D K D Z ",
"F D R R R D R R R K B + L.$X9 S Q s +.W.0 p S R R K D K G Z B S ",
"R R D D D D R R R R R x S.L.7 Z R a H T.x l D D K R K D B Z D B ",
"D R D D D R D R E Q ~ ~ x % 6 S D s @ 6 Z D I G R R G Z D D B B ",
"F D D R R D R R ~ ! K D B Z F K R S S P R D ! $.R K P R S D S R ",
"R D W R R J R E ~ P D R ~ R K R R R R R D I R R R R R E D S R K "
};
