/* XPM */
static char *star[] = {
/* columns rows colors chars-per-pixel */
"32 32 194 2 ",
"   c #050607",
".  c #04050B",
"X  c #070A0D",
"o  c #060810",
"O  c #0B0D12",
"+  c #05061C",
"@  c #05091B",
"#  c #0C0E1B",
"$  c #0E1214",
"%  c #101214",
"&  c #11141B",
"*  c #12191D",
"=  c #191A1C",
"-  c #020324",
";  c #0D0D21",
":  c #01052B",
">  c #07082E",
",  c #0C0D2A",
"<  c #0E102F",
"1  c #0F1729",
"2  c #131522",
"3  c #161C22",
"4  c #191D23",
"5  c #15162D",
"6  c #131B2A",
"7  c #19192A",
"8  c #010238",
"9  c #040B38",
"0  c #0A0C39",
"q  c #060936",
"w  c #0A1831",
"e  c #05123D",
"r  c #0C1A39",
"t  c #161A34",
"y  c #1B1C34",
"u  c #17173E",
"i  c #171B3B",
"p  c #141736",
"a  c #1C2226",
"s  c #1D2429",
"d  c #1C2331",
"f  c #1A203E",
"g  c #162234",
"h  c #202626",
"j  c #212729",
"k  c #242B2D",
"l  c #2B2C2C",
"z  c #252D34",
"x  c #242938",
"c  c #2D3234",
"v  c #2D353A",
"b  c #303639",
"n  c #31393C",
"m  c #060C43",
"M  c #00064B",
"N  c #010A4A",
"B  c #050944",
"V  c #0E1D4D",
"C  c #071746",
"Z  c #141F40",
"A  c #161A46",
"S  c #020E55",
"D  c #010D5D",
"F  c #031452",
"G  c #0B1851",
"H  c #03115C",
"J  c #0B1858",
"K  c #0B1558",
"L  c #122444",
"P  c #1C2544",
"I  c #192842",
"U  c #1B224A",
"Y  c #1A2A4D",
"T  c #12214D",
"R  c #0A2156",
"E  c #0B225B",
"W  c #0A2A59",
"Q  c #11265A",
"!  c #12295C",
"~  c #1D2B57",
"^  c #143057",
"/  c #19355A",
"(  c #252C4D",
")  c #2C3342",
"_  c #27384D",
"`  c #2E334D",
"'  c #373E44",
"]  c #393D49",
"[  c #323646",
"{  c #252D57",
"}  c #253652",
"|  c #020C62",
" . c #031B6B",
".. c #011B74",
"X. c #011A77",
"o. c #09286F",
"O. c #142A63",
"+. c #173260",
"@. c #1C3467",
"#. c #12336C",
"$. c #1A3E68",
"%. c #052572",
"&. c #173171",
"*. c #233877",
"=. c #3C434A",
"-. c #3F484C",
";. c #23405D",
":. c #1D4167",
">. c #254663",
",. c #42484C",
"<. c #444D51",
"1. c #4A4A56",
"2. c #444752",
"3. c #4E535B",
"4. c #54595E",
"5. c #5C5C5D",
"6. c #545558",
"7. c #605F5F",
"8. c #5F605F",
"9. c #404A60",
"0. c #485265",
"q. c #515462",
"w. c #545C63",
"e. c #5D5E62",
"r. c #575D68",
"t. c #576065",
"y. c #5E6064",
"u. c #5D656C",
"i. c #586271",
"p. c #656564",
"a. c #686767",
"s. c #676867",
"d. c #686867",
"f. c #646568",
"g. c #64696B",
"h. c #6C6C6B",
"j. c #706F6E",
"k. c #6F706E",
"l. c #70706F",
"z. c #626A77",
"x. c #687176",
"c. c #747472",
"v. c #777876",
"b. c #787877",
"n. c #777878",
"m. c #7B7B7A",
"M. c #7F807E",
"N. c #012483",
"B. c #02238A",
"V. c #042889",
"C. c #032D94",
"Z. c #00299C",
"A. c #05349C",
"S. c #063CA4",
"D. c #0839A5",
"F. c #0338A9",
"G. c #033EB3",
"H. c #0F408C",
"J. c #12418B",
"K. c #0340AE",
"L. c #1457A6",
"P. c #0044BF",
"I. c #044DBA",
"U. c #084BB6",
"Y. c #0F59B9",
"T. c #1960AD",
"R. c #1765BB",
"E. c #186ABE",
"W. c #1765B0",
"Q. c #367BAB",
"!. c #0750C1",
"~. c #0955C8",
"^. c #0554D1",
"/. c #186DC3",
"(. c #176CC8",
"). c #1971CC",
"_. c #0D6ADC",
"`. c #126FD2",
"'. c #1070DE",
"]. c #277CCC",
"[. c #0C6BE3",
"{. c #1076E9",
"}. c #0D76F0",
"|. c #3D84AB",
" X c #3C87B1",
".X c #7F8A8E",
"XX c #7E8A91",
"oX c #2781C4",
"OX c #3F95C0",
"+X c #2D8FD9",
"@X c #248BE0",
"#X c #2A98E5",
"$X c #39B2FA",
"%X c #45A2CC",
/* pixels */
"c.c.c.h.c.m.b.b.c.p.h.h.h.h.h.h.h.k.h.h.p.h.h.d.j.j.h.7.5.l.j.c.",
"c.c.c.c.c.c.b.c.c.l.h.h.d.d.c.c.c.c.l.h.h.j.h.a.d.h.p.p.7.d.l.h.",
"v.b.m.v.c.v.m..Xc.l.h.c.c.c.h.a.g.l.c.c.c.c.j.h.j.a.5.5.s.h.h.d.",
"h.c.b.M.m.b.l.j.b.b.l.c.b.m.y.} } y.c.c.j.c.c.h.a.7.p.d.h.d.l.l.",
"d.j.j.j.c.m.m.v.c.m.M.v.k.s._  XoX~ g.c.c.l.c.h.l.h.h.s.s.h.h.l.",
"j.j.j.c.l.l.c.v.c.c.v.m.c.u.:.#X`.L p.c.l.a.1.L 6.k.h.h.h.h.l.k.",
"j.c.j.c.v.j.h.c.n.c.l.v.k.Y /._.N.< p.h.4.Y R o.t p.h.h.h.l.l.s.",
"l.j.h.p.j.c.c.j.c.n.l.l.p.Y S.N.9 & p.e.O.I.I. .# p.v.l.l.l.l.h.",
"j.j.l.l.j.v.v.c.j.b.v.p.b i.{ 0 s a 6.( N.Z. .: $ 8.l.h.d.d.p.h.",
"j.v.m.m.c.c.v.r.} q.h.5.v XXr.1 a * s 1 9 C > X % p.h.s.h.d.l.l.",
"v.v.c.j.j.c.h.} Q.:.& 4 z x.9.T g v t.n k =.s X = p.l.l.l.c.l.l.",
"v.l.h.j.j.c.a.P L.(.&.x j =.@.L.$.i.w.j 4.r.s % p.m.v.v.c.l.d.h.",
"h.h.l.v.c.l.c.7.G G.^.o.# & O.(.&.2.x w x n a O 5.b.m.m.m.v.b.v.",
"j.l.c.c.m.c.l.7.& J G.P.K @ o.!.E 2 / W.W & O   = 5.j.c.v.m.m.v.",
"l.l.j.d.j.c.j.7.4 [ ~ B.N.F D.C.f r /.{.I.V @ r F y 5.h.h.j.l.m.",
"l.j.h.l.j.h.l.c.c l ] A S K ..S 2 e A.V.*.0.I L.!.H 7 j.v.c.l.l.",
"c.d.p.p.h.h.a.j.6.$ k ) t _ f 1 X - N U q.,.a +.V.M # s.c.v.b.v.",
"h.c.c.c.d.f.s 4 j 3 $ s a k ,.-.& @ L =.c & c z.{ , & p.c.k.h.k.",
"c.c.c.h.b.h.h z <.-.s =.w.j = k 3 I |.>.X a x..X3.z * = h.v.v.c.",
"c.h.c.m.c.c.5.4 3 z s 3 =.=.*   o R @XY.C ' g.t.c a X = p.v.v.c.",
"h.c.c.c.j.j.p.& m 9 ! E C d a $ . F ^.F.D ~ ) h * X = p.v.v.v.c.",
"h.h.h.h.j.j.y.$.R.H.Q.].I.m $ s 2 R B.| ../.#.o   l p.c.n.l.c.c.",
"l.c.c.h.c.1.! ).}.I.^ #.A.F @ 2 ;. X+.0 C.[./.T 1 5.v.c.l.l.l.j.",
"c.c.m.v.a.A ..F.C. .i ] i - + / %X+XQ y G ..D.~.H.g f.c.c.j.j.j.",
"d.l.l.c.v.q.A < , y r.f.v # i %X$XU.B 2 # - B  .%.i p.c.c.b.c.b.",
"d.h.l.d.h.c.h.s.a.e.v <.z O V @X'.N.: O % % # # i e.c.j.j.p.h.d.",
"s.s.h.c.h.h.c.c.v.h.s 4 % X N A.B.D 8 p p.h.d.a.h.c.h.a.h.h.h.p.",
"d.h.l.v.c.h.c.v.c.c.p.4 % $ 0 D M 8 5 p.v.c.c.b.c.h.h.c.h.p.p.a.",
"c.j.j.h.h.h.c.c.c.c.v.h.a.h.y.5 ; 2 5.a.a.p.d.d.l.j.l.h.p.p.h.p.",
"h.v.j.h.h.c.h.c.v.b.m.m.b.b.b.a.p.p.a.p.p.h.l.l.l.c.j.a.h.h.7.7.",
"p.h.h.c.c.j.j.c.m.b.c.h.a.j.j.c.j.j.j.b.c.j.b.M.c.c.l.c.h.h.d.c.",
"c.h.c.n.j.l.c.v.b.j.j.c.b.c.j.c.c.c.c.j.h.j.l.b.c.l.l.c.h.a.c.h."
};
