/* XPM */
static char *star[] = {
/* columns rows colors chars-per-pixel */
"64 64 211 2 ",
"   c #010204",
".  c #060807",
"X  c #01020B",
"o  c #040A0B",
"O  c #090C0D",
"+  c #0C110E",
"@  c #020214",
"#  c #0A0613",
"$  c #030B11",
"%  c #01011B",
"&  c #06081A",
"*  c #0B0C17",
"=  c #0D1315",
"-  c #0B151B",
";  c #12161A",
":  c #151A1A",
">  c #191C1D",
",  c #131515",
"<  c #100D19",
"1  c #010124",
"2  c #00002B",
"3  c #070B29",
"4  c #0C0D24",
"5  c #0A1428",
"6  c #0B1223",
"7  c #191D24",
"8  c #17182A",
"9  c #141D23",
"0  c #010333",
"q  c #00023B",
"w  c #060A39",
"e  c #080B35",
"r  c #181736",
"t  c #14123C",
"y  c #0A1338",
"u  c #1B2224",
"i  c #1B2529",
"p  c #1E2A31",
"a  c #1E2237",
"s  c #08203D",
"d  c #232A2C",
"f  c #212424",
"g  c #242D32",
"h  c #262735",
"j  c #243134",
"k  c #2F393C",
"l  c #2A3437",
"z  c #33393C",
"x  c #3D433F",
"c  c #000443",
"v  c #01034B",
"b  c #010B4B",
"n  c #050A45",
"m  c #021246",
"M  c #041847",
"N  c #1A1B49",
"B  c #141341",
"V  c #00055B",
"C  c #020A55",
"Z  c #061A57",
"A  c #011459",
"S  c #131A56",
"D  c #130F44",
"F  c #221E50",
"G  c #0B2347",
"H  c #19314C",
"J  c #09285A",
"K  c #0A2554",
"L  c #1B365B",
"P  c #182851",
"I  c #2F3843",
"U  c #333E42",
"Y  c #353748",
"T  c #2F3251",
"R  c #000C64",
"E  c #000B6B",
"W  c #00106B",
"Q  c #031867",
"!  c #000B73",
"~  c #001573",
"^  c #001B75",
"/  c #00167C",
"(  c #001B7B",
")  c #152A69",
"_  c #0C346E",
"`  c #0A2977",
"'  c #03247B",
"]  c #0B337C",
"[  c #12316C",
"{  c #1E455C",
"}  c #394246",
"|  c #3D464A",
" . c #3D4151",
".. c #1C4478",
"X. c #2D4A62",
"o. c #474B4C",
"O. c #444E53",
"+. c #494D58",
"@. c #4F4E50",
"#. c #514F50",
"$. c #495357",
"%. c #4D555A",
"&. c #595758",
"*. c #535B5E",
"=. c #5D5D5D",
"-. c #545454",
";. c #504E4F",
":. c #615F5F",
">. c #61615F",
",. c #555C62",
"<. c #4A4E66",
"1. c #615F6A",
"2. c #576063",
"3. c #5B6468",
"4. c #5C607C",
"5. c #646464",
"6. c #686766",
"7. c #676866",
"8. c #696967",
"9. c #696768",
"0. c #6C6C6B",
"q. c #626A6D",
"w. c #706F6E",
"e. c #6F706E",
"r. c #70716F",
"t. c #656D72",
"y. c #6C7478",
"u. c #757574",
"i. c #787776",
"p. c #777876",
"a. c #787876",
"s. c #7B7B7A",
"d. c #717B7F",
"f. c #7F807E",
"g. c #80807E",
"h. c #001A89",
"j. c #001B85",
"k. c #022586",
"l. c #0B3283",
"z. c #002693",
"x. c #022A9C",
"c. c #0B3992",
"v. c #002CA7",
"b. c #0137A8",
"n. c #023CAA",
"m. c #002DB1",
"M. c #0139B7",
"N. c #185A99",
"B. c #114791",
"V. c #2D6C97",
"C. c #3C799C",
"Z. c #195DA8",
"A. c #0647B7",
"S. c #0345BB",
"D. c #0B4AAB",
"F. c #1D61AB",
"G. c #2169A7",
"H. c #3D7AA2",
"J. c #737D82",
"K. c #6C7281",
"L. c #4D5982",
"P. c #003CC2",
"I. c #0147C4",
"U. c #135ACE",
"Y. c #004ED3",
"T. c #004DDD",
"R. c #0356D8",
"E. c #0C53CD",
"W. c #0261CB",
"Q. c #1867C4",
"!. c #176ACE",
"~. c #0A65D9",
"^. c #1A79D8",
"/. c #005DE8",
"(. c #005FF1",
"). c #0567E7",
"_. c #0A74EB",
"`. c #197DE3",
"'. c #0973F4",
"]. c #2077D2",
"[. c #3D83AF",
"{. c #7A868C",
"}. c #4387AC",
"|. c #1984D7",
" X c #2388DC",
".X c #3797D5",
"XX c #1C87EB",
"oX c #1B95FE",
"OX c #1B9AFF",
"+X c #1286FB",
"@X c #268BE6",
"#X c #2391EA",
"$X c #2293F3",
"%X c #1FA4FF",
"&X c #34B3FD",
"*X c #4CA8D1",
"=X c #4FB4E3",
"-X c #4295D3",
";X c #3EC7FF",
":X c #56C0DB",
">X c #56D5FF",
",X c #5AE1FF",
"<X c #848483",
"1X c #8A8C87",
"2X c #8E8F8B",
"3X c #858988",
"4X c #91938D",
"5X c #889398",
"6X c #8D908A",
"7X c #98A6AE",
"8X c #8E9AA2",
/* pixels */
"r.r.u.u.p.0.0.0.0.i.g.g.i.i.g.u.u.s.=.=.0.7.7.7.u.=.u.0.0.0.0.0.e.r.r.r.r.0.0.0.=.5.0.8.0.0.7.0.w.w.w.r.r.7.7.&.-.5.r.a.8.0.u.a.",
"r.r.u.u.i.0.0.0.0.s.g.J.i.i.g.i.u.i.=.=.0.7.8.5.u.=.u.0.0.0.0.0.r.r.r.r.r.0.0.0.=.8.0.8.0.0.7.0.w.w.w.r.r.7.7.&.-.5.u.a.8.0.u.a.",
"i.i.e.u.0.s.i.i.p.0.u.i.p.0.0.p.s.u.u.s.u.0.0.8.0.0.0.u.u.8.e.u.r.e.e.r.e.0.0.0.r.r.0.0.u.0.5.8.8.5.5.0.0.5.=.5.5.=.=.0.0.0.e.0.",
"p.u.s.p.s.9.u.u.u.u.g.0.i.i.s.0.8.u.0.5.5.0.g.u.5.=.=.=.u.u.u.u.u.u.u.e.p.7.r.r.0.r.r.r.r.0.5.5.-.5.4X7.5.5.5.5.5.=.8.8.a.a.e.e.",
"u.u.s.u.u.u.u.5.0.u.g.s.2X<Xu.s.s.8.u.0.<Xi.5.0.r.u.0.0.u.u.u.u.e.e.u.0.u.f.p.a.i.i.a.a.r.0.0.0.8.g.0.&.5.5.5.-.&.8.8.a.0.&.&.&.",
"u.u.i.3X<X3X1Xu.u.a.6.u.p.J.2Xg.u.s.0.0.5.8.<Xs.a.s.i.0.=.=.u.u.e.u.u.0.u.e.r.r.w.r.u.u.r.0.0.i.u.0.7.8.=.;.-.&.8.r.a.&.7.a.a.u.",
"u.u.u.u.i.s.a.1Xg.g.i.u.5.5.i.g.s.u.i.u.0.=.5.i.g.3X<Xg.u.0.% 1 % % u.0.u.u.r.s.u.:.u.u.a.0.8.w.0.;.=.#.&.8.7.0.8.r.=.7.r.u.u.u.",
"&.&.0.u.i.i.3Xs.s.u.g.g.i.u.5.9.u.2Xu.i.s.u.0.0.a.0.u.3Xa.u.L L L J u.8.u.u.e.e.u.w.u.a.u.0.w.8.0.8.0.0.7.8.0.e.e.0.7.0.u.r.u.=.",
"0.0.8.5.8.5.0.u.u.s.s.u.g.g.a.u.u.a.g.g.s.a.<X0.5.8.s.u.@ L H.*X.XZ.J % u.u.u.u.u.w.u.u.u.0.u.{.u.8.5.u.a.r.0.8.e.=.7.e.0.a.e.r.",
"e.e.u.u.u.u.5.5.5.i.a.s.u.u.<Xu.r.6.g.<X<X4Xu.s.<Xa.5.0.X L *X>X;X^._ @ u.u.u.e.u.a.=.u.u.p.8.r.u.a.7.8.8.8.7.7.0.7.0.0.r.=.r.e.",
"e.e.9.5.p.p.u.p.u.8.7.u.s.s.u.g.u.u.5.u.0.i.<Xi.=.5.8.7.X L .X;X%X~.J @ u.u.u.u.u.u.0.u.u.0.% % a.0.a.r.e.e.r.7.0.7.0.0.a.0.r.g.",
"e.e.u.u.5.5.i.u.i.u.u.7.u.p.p.u.g.u.i.w.u.0.i.3Xs.s.u.s.G N. XoX_.A.M X u.0.8.u.e.u.w.u.u.1 m M e u.0.5.u.0.8.r.0.7.0.0.8.g.0.>.",
"e.e.u.u.u.u.u.u.i.u.a.8.&.&.u.i.u.g.i.>.u.u.i.u.3X3X% J G. XXX'.S.( q @ u.u.e.0.=.5.% X X w ' _ y   u.0.=.7.0.0.0.5.8.u.0.u.0.5.",
"0.0.u.u.u.u.u.u.u.a.u.u.u.u.u.u.u.0.u.i.u.u.0.0.0.0.@ J !.oX_.I.k.c 1 @ u.0.7.w.r.8.Z J J ` c.] w   s.u.r.7.7.u.=.r.u.0.u.r.:.0.",
"u.s.u.u.7.0.-.-.0.u.0.r.u.u.8.u.u.s.s.u.5.r.u.u.u.u.@ Z A.~.S.k.v 2 @ $ 0.e.w.=.X A D.W.W.I.c.Q 3   =.p.u.r.0.=.0.a.u.r.u.u.0.0.",
"0.e.0.8.r.8.r.0.u.-.u.u.u.u.u.5.u.u.u.s.u.u.u.u.u.u.a P k.z.^ C e 4 * o e.7.9.0.m k.Y.).).I.( q @ X u.p.g.u.u.r.a.u.u.u.u.5.0.a.",
"5.5.0.r.r.r.r.0.r.s.<Xu.u.u.u.u.u.u.s.u.f.5.5.r.X j ,.<.[ v q e a p - o e.e.7.b ' b.P.M.b.' b % X   =.=.5.s.<X3Xa.i.r.a.=.=.0.0.",
"u.u.0.r.r.r.s.s.r.0.7.<X<Xu.u.u.g.f.u.u.u.u.u.u.  k {.{.<.B 4 5 j l u o e.e.% m ' x.h.! V q 1 @ . . e.u.u.=.=.;.o.;.-.:.=.0.u.&.",
"5.7.u.s.s.s.s.s.r.r.0.7.u.u.u.r.@ % u.s.u.s.u.7.X } {.7XK.I 9 4 p p u $ . . & w m C C v q 1 & O .   u.7.0.s.0.s.s.s.u.-.r.u.0.s.",
"u.e.p.<X<X<Xu.u.s.s.u.0.u.<Xf.P L L y u.f.u.s.r.@ } {.7X{.} 8 < 7 i - - i j p - @ % e B e & * O .   p.u.0.5.&.&.9.9.0.0.a.u.0.0.",
"s.s.u.u.u.u.u.u.8.0.s.s.<Xs.1 X.}.}.L X   o o X $ I J.5Xt.I e 3 8 u - p %.3.O.u . = I Y g - O . .   =.0.7.0.s.s.0.0.0.g.0.0.u.0.",
"u.u.u.u.0.0.8.:.u.u.0.u.7.u.% L -X=XG.G & * 7 9 - l q.y.+.P ) ) P i g $.J.J.O.d d o.3.,.z ; . .     a.r.s.0.0.0.u.u.i.0.u.a.0.0.",
"g.g.u.0.5.u.u.u.u.u.u.0.u.u.% Z Z.@X@XZ.Z r I z u d %.,.F ) Z.Z.J H O.J.{.,.g d $.y.y.,.k = .   <Xa.s.a.s.u.a.a.s.0.0.i.r.r.u.i.",
"u.u.u.u.r.0.8.5.8.5.u.u.0.7.% c ^ A.XX`.D.) T z : > z Y B ]  X X] F 4.3Xt.l O : %.d.t.O.g - .   s.<X6Xs.u.s.s.a.u.a.u.=.=.=.=.=.",
"r.u.5.=.5.8.u.u.u.u.u.r.g.0.u.a.q ' A.).).A.) 8 O O u 8 w ] @X Xl.N ,.y.o.9 X # h o.O.} d ; .   0.0.0.<Xg.a.i.u.s.a.u.i.i.i.g.g.",
"5.5.0.u.u.u.g.u.u.u.5.u.a.u.p.a.@ 0 ~ M.(./.b.A 1 o + # 1 ` ^.^.l.D Y } f 4 G M 5 ; d j i = .   u.u.w.0.3X<X<Xs.a.s.s.a.a.s.s.a.",
"7.7.u.s.s.s.0.g.g.<Xu.5.a.7.8.5.. % c / I././.n.A % . X 1 ' ~.~.k.e 7 > # G N.N.K X , f > O . . . o 6.u.5.0.s.<X<X3Xg.<Xg.s.a.s.",
"r.w.0.u.5.u.u.r.0.<Xa.u.0.0.0.u.o * r S ' M.R.Y.z.n & 4 Z n.Y.S.` e < ; G N.#XXXB.M 3 < O .     X @ 3Xw.w.u.5.0.8.0.s.s.s.g.u.5.",
"s.s.s.=.8.=.=.8.s.0.<Xu.0.u.7.0.  > Y T F Q z.M.n.^ w M B.Y.M.l.L 7 * G N.@XoX+X).n.Z % X . X % 1 1 @ X 0.=.=.r.u.u.0.0.0.0.u.s.",
"0.0.0.i.p.u.u.&.>.5.0.a.8.8.u.u.  > | +.Y t b / x.k.c Z A.Y.x.Q F f * K Q.oX_.R.Y.A.] a * 5 G _ ` Q n % a.i.u.5.=.=.u.g.g.g.g.3X",
"a.u.u.g.0.a.a.1Xs.8.0.0.0.u.u.u.  = d | O.Y t v W R v C k.v./ C h > # Z D.U.S.k.( l.L.+.8 M N.|.~.S.^ q % X 3Xi.a.u.=.-.-.5.5.5.",
"0.0.0.=.8.0.8.0.0.s.u.8.r.u.u.g.i.  O d o.$.I t n C S S A V v q - * & b k.z.~ C N <.y.2.h G N.^._.Y.k.c % X i.<X<X3Xg.g.g.i.i.a.",
"u.u.0.&.5.&.&.&.8.&.u.0.5.s.s.s.u.7.  = d | +.Y t N T T B 2 1 % # o % c R R c N <.t.q.o.d 5 G ] n.m.( q % X 0.5.u.s.3X3X<Xs.u.0.",
"u.u.8.0.8.s.0.0.8.g.r.=.f.e.s.p.u.e.  . $ d } I 4 5  .+.Y a i - o X @ 2 q q t U 3.q.o.i = ; a P Q ! v 2 @ X u.s.0.0.&.u.u.s.3Xs.",
"e.e.u.s.0.7.u.p.s.-.o.u.$ $ $ X . X $ o o = 9 ; $ $ i } +.%.%.z ;   X @ 1 e Y %.o.z d = o d 3.4.P q 2 1 @   s.u.u.0.u.0.5.&.9.0.",
"e.e.0.0.u.s.s.u.-.8.3X1Xo - - u i g j i * $ ; d g i - i } ,.2.o.d o X 6 H X.$.} f = $ * u *.5X5X<.r 8 4 * O u.s.s.s.u.0.i.i.0.0.",
"0.0.0.u.s.8.=.=.a.s.g.5.O - p U O.*.*.} u - k *.t.$.u O > k z k d ; % H C.}.X.f O     7 O.{.5X5Xq.| k g 9 = .   i.i.s.i.u.u.s.u.",
"r.r.3Xu.5.7.7.u.<Xg.u.<XX - g U O.,.,.| j p U 3.d.t.} ; o o * > i ; % X.*X=XV.y @ . , } y.5X5Xd.3.O.U g i = o   u.u.u.p.u.a.u.u.",
"s.s.u.0.8.f.s.1X0.5.<X3Xs.7.5 i d g k k l g i l o.2.*.U ;     O ; # 1 ] .X&X|.c.e < l *.y.d.{.3.| l d i ; O .   t.s.p.p.p.u.0.7.",
"0.0.5.=.a.u.<X8.a.g.u.7.7.7.. X X # 4 8 a 8 @ X - k $.o.d $     . X 2 ` ^.OX'.A.Q e I $.*.2.*.| d ; ; = o . .   u.9.s.u.s.s.u.s.",
"u.u.0.g.<X<Xu.a.a.5.&.u.u.s.o @ % 2 2 w w 2 2 % % u p k g : o     X 2 ' ~.'.R.v.! v D T } } z d 7 ; - o .   s.u.5.5.u.f.i.i.u.u.",
"8.8.r.u.u.>.5.0.5.u.u.0.0.a.  3 J Q v n ) B.l.` ` M 5 : u i u = O X % W P.T.m.! V C ) ) N i : ; : = O .   X g.1X1Xg.9.u.u.0.u.u.",
"5.5.u.a.s.5.r.u.u.u.u.u.s.u.X K F.Z.Q P H.*X-X^.W.c.m . O > d d 7 < 1 V z.m.h.V v ' Z.Z.) 1 . . O O .   u.p.u.s.i.J.i.u.J.u.u.u.",
"0.0.0.u.5.r.a.8.7.7.7.=.0.u.K N.#XXXD.B.[.*X.X@X'.Y.^ % X = d d 7 8 L [ ' E V v b B.XXoXZ.K #         p.u.0.0.0.p.u.u.6.0.u.u.0.",
"5.5.u.5.u.0.7.u.u.u.u.8.@ K G.@XOX'.).Z...{ L b.I.I.j.q % * u ; # H H.}.] n 2 c ^ I.'.oX#XN.y       i.u.u.u.i.u.0.0.u.w.i.u.0.u.",
"u.u.a.g.u.w.5.u.u.u.u.1 q ] ^.oX'././.n.n X 4 S k.k.Q 0 1 @ # 4 N V.:X=X..1 < D ' M.Y.).XX].B.K s 5 i.0.u.u.u.u.u.u.u.u.i.0.u.9.",
"g.g.8.a.a.s.r.8.7.u.% q R x.E.R.I.m.v.~ 2 & h Y N q 0 1 % $ % P C.:X>X.X] 4 7 h Z ^ h.x.A.U.~.Q.N._ 5   u.u.i.u.i.0.,.9.0.0.6.0.",
"8.8.0.u.g.<X6Xs.s.9.% c R h.z.k./ W C n N  .*.*.h & # @ @ 3 P V.=X>X&XQ.Q t h h r 0 c V ! x.E._.U.l.y   u.0.0.0.0.u.u.w.0.w.w.s.",
"r.r.s.8.0.0.u.s.e.s.f.q c b n e 0 1 1 r <.y.y.,.z i : # # N }.=X>X&X`.b.R e 8 f 7 4 1 0 v R ' c.M.z.e . u.u.u.u.u.u.s.3Xs.s.s.s.",
"=.=.0.g.0.8.0.0.f.s.u.u.1 % X     X X h ,.d.y.2.| j u # 1 L *X,X>X+XI.j.v 1 * : : = # % 2 2 2 v ! W w   5.u.u.s.u.8.s.u.0.8.<Xu.",
"0.0.8.0.a.8.8.7.0.u.p.s.u.g.5.p.u.u.u.u.g o.3.,.} u : # 1 ] .X;XOX).b.Q 0 @ O + + . . X @ @ @ 1 0 0 u.8.s.a.0.=.0.s.8.5.=.7.8.=.",
"5.5.0.0.0.g.=.7.7.0.0.0.s.u.g.u.u.u.u.q.  9 | o.j , + $ 2 ` Q.XX_.I.z.C 0 % # $ .       X X X X X   u.u.0.u.a.a.s.0.=.&.s.u.=.8.",
"0.0.5.7.u.0.6X5.=.0.u.0.u.u.u.u.p.u.i.u.  * p g u = O @ 2 Q n.A.n.z.~ C c 0 1 % 4Xs.0.3X<Xa.a.0.0.0.0.a.s.u.0.0.:.&.7.u.5.0.s.g.",
"5.5.7.7.&.u.0.s.0.0.0.0.u.u.u.9.u.p.u.i.$ * - - = O . X 2 C h.z.( R V C c 0 2 2 0.0.u.0.5.a.0.0.s.g.g.0.0.=.&.&.7.u.u.r.<X0.&.o.",
"5.5.u.7.8.a.s.a.<X7.0.0.u.u.u.e.p.u.u.u.u.u.$ $ o . . X 1 b ~ / R v v c 2 % g.3Xs.4X3Xs.0.a.s.g.u.0.0.u.-.8.s.p.<Xu.u.w.#.o.-.s.",
"8.8.0.0.u.u.u.u.u.u.0.0.u.u.u.e.u.u.u.u.u.u.# . .   . X % q b C c 0 0 2 @   0.5.a.5.0.i.a.u.u.0.0.u.a.0.s.u.8.u.0.7.=.;.5.r.u.u.",
"p.u.5.s.0.8.u.u.5.e.0.0.u.u.u.u.u.u.u.u.p.u.u.0.u.w.u.u.p.0.1 1 1 % % % 0.5.5.u.5.0.5.-.0.0.0.u.s.0.0.r.8.u.<Xu.=.&.0.:.0.a.8.-.",
"u.u.u.u.0.0.s.5.0.=.0.8.8.u.u.u.u.u.u.w.p.u.i.J.u.u.u.s.p.p.  X X X X X 5.s.s.5.0.:.0.r.=.=.0.&.0.i.u.r.5.u.0.-.=.7.-.g.r.>.&.r.",
"0.0.0.u.0.u.p.=.7.p.u.u.5.u.u.r.u.u.u.u.u.s.3Xs.s.s.s.w.p.0.0.0.u.u.u.u.g.0.-.&.=.8.=.0.w.a.7.a.9.5.u.=.1Xu.-.=.r.u.a.5.5.&.8.o.",
"0.0.u.<Xu.u.-.u.p.u.a.u.e.u.5.a.u.u.u.s.3Xg.i.i.s.f.J.s.s.3Xu.u.0.0.=.0.=.=.0.8.&.0.r.u.u.5.u.r.u.g.<Xa.0.=.0.0.s.7.7.5.&.:.&.u.",
"u.u.u.u.@.-.a.0.u.a.u.5.e.5.u.u.i.s.<Xg.i.i.0.0.&.0.u.u.u.u.s.a.u.0.r.u.8.0.0.8.a.r.r.u.u.g.3Xu.=.u.0.g.0.0.s.a.&.u.u.u.>.:.u.a.",
";.o.5.8.0.u.s.a.a.u.5.r.u.u.u.u.s.g.i.w.0.0.5.5.:.-.9.9.&.0.0.0.0.u.r.0.s.a.3X1X4X7.5.8.8.g.3X4Xs.u.u.>.a.0.a.a.0.5.r.&.6.a.g.r.",
"0.0.0.0.u.u.u.s.u.5.r.r.u.s.u.u.J.s.s.u.5.9.u.s.g.3Xu.i.u.7.u.s.u.8.0.u.u.0.r.r.0.u.u.s.s.w.u.a.8.u.u.0.5.6Xu.a.0.#.8.u.g.g.5.5.",
"<X<Xu.0.s.s.s.u.5.e.r.e.u.p.u.s.p.s.7.9.u.i.i.u.u.s.i.s.a.u.0.u.s.a.8.u.u.s.r.9.&.0.0.7.6.0.0.a.s.u.u.a.r.7.u.u.a.s.-.5.a.8.r.u."
};
