/* XPM */
static char *_7a24cac18fe41f289c3da89d917424erIkbrVpHtrfO2zom[] = {
/* columns rows colors chars-per-pixel */
"64 64 154 2 ",
"   c #221B26",
".  c #251D2B",
"X  c #291F33",
"o  c #27202F",
"O  c #28202F",
"+  c #272030",
"@  c #2A2233",
"#  c #2E2A37",
"$  c #2E253B",
"%  c #2F293B",
"&  c #302C3C",
"*  c #32303C",
"=  c #322643",
"-  c #332A45",
";  c #342748",
":  c #362C4C",
">  c #382E4D",
",  c #353244",
"<  c #3A3946",
"1  c #363049",
"2  c #39324E",
"3  c #3C3B4E",
"4  c #392F50",
"5  c #3C3552",
"6  c #3E3954",
"7  c #3F3D59",
"8  c #413C56",
"9  c #423E59",
"0  c #3F4351",
"q  c #424355",
"w  c #464A57",
"e  c #45445B",
"r  c #48475E",
"t  c #474A5C",
"y  c #494B5E",
"u  c #434661",
"i  c #464A63",
"p  c #4B4D62",
"a  c #4E5265",
"s  c #4D5569",
"d  c #4E596B",
"f  c #515566",
"g  c #525867",
"h  c #515668",
"j  c #535B6B",
"k  c #4D5C71",
"l  c #525F70",
"z  c #54606F",
"x  c #556372",
"c  c #596573",
"v  c #576876",
"b  c #596976",
"n  c #536778",
"m  c #566C7B",
"M  c #5A6E7B",
"N  c #5A717E",
"B  c #606F7B",
"V  c #62727D",
"C  c #577281",
"Z  c #5B7582",
"A  c #5C7A86",
"S  c #5E7D89",
"D  c #617681",
"F  c #637984",
"G  c #687F87",
"H  c #617F8A",
"J  c #5D828E",
"K  c #5F8590",
"L  c #5F8893",
"P  c #61828D",
"I  c #6B848D",
"U  c #70828B",
"Y  c #708A8E",
"T  c #618691",
"R  c #6A8691",
"E  c #638A94",
"W  c #648B95",
"Q  c #638D97",
"!  c #668E97",
"~  c #688992",
"^  c #698A93",
"/  c #6A8D95",
"(  c #648F99",
")  c #688F98",
"_  c #698F98",
"`  c #718E95",
"'  c #718F96",
"]  c #6D9096",
"[  c #679099",
"{  c #699098",
"}  c #6B939A",
"|  c #6B939B",
" . c #6C9199",
".. c #6C949B",
"X. c #6C969D",
"o. c #6E989F",
"O. c #739197",
"+. c #72959B",
"@. c #78979B",
"#. c #79979B",
"$. c #73999E",
"%. c #7A999C",
"&. c #7A9A9D",
"*. c #7D9E9F",
"=. c #739BA1",
"-. c #759DA1",
";. c #769DA1",
":. c #7A9EA2",
">. c #7C9EA1",
",. c #77A0A4",
"<. c #79A1A4",
"1. c #7BA3A5",
"2. c #7CA3A5",
"3. c #7BA5A7",
"4. c #7FA5A7",
"5. c #7DA7A9",
"6. c #7EA9AA",
"7. c #81A4A5",
"8. c #81A6A9",
"9. c #8BA7A8",
"0. c #80A9AB",
"q. c #83ACAC",
"w. c #83ACAD",
"e. c #8AAEAE",
"r. c #86B0AE",
"t. c #89B1AF",
"y. c #8EAFB0",
"u. c #88B1B0",
"i. c #8BB4B1",
"p. c #89B4B2",
"a. c #8BB5B2",
"s. c #8CB5B1",
"d. c #8DB7B4",
"f. c #8DB8B5",
"g. c #92B6B4",
"h. c #93B9B6",
"j. c #9BB9B7",
"k. c #96BDB8",
"l. c #9BBEBA",
"z. c #A0BFBC",
"x. c #95C0BB",
"c. c #9CC1BC",
"v. c #A2C3BE",
"b. c #A4C6C1",
"n. c #A8C6C1",
"m. c #A5C9C2",
"M. c #ABCCC4",
"N. c #B0CFC7",
"B. c #AED0C7",
"V. c #AFD1C9",
"C. c #B0D0C7",
"Z. c #B2D2C9",
"A. c #BBD9CE",
"S. c #BFDCD1",
/* pixels */
"p x A S v f f g g g g g g h h v S E E  .5.s.s.s.s.8. .E E S v f f f f f g h g v S X.5.a.a.2.| K J E Q S v f f g g g g g f a a p ",
"x N P S v f g j j j j g g f h x N S E | ,.5.5.4.4.-.) J S M j g j v v x j f a s m ~ 2.a.a.4.| K K P S M j f a a a a a s j v M V ",
"A J T S v g h g g g g g g g g g z M J ! |  . .| | | W S m j f j N S J Z x p e e s F :.a.a.4.| T K S m j g f f a a a a j m P +.*.",
"Q E J Z x f a p p p p a h g g f f g v Z A S T E E E E S m j z M P ! T N j e 5 5 r M &.a.a.4.| T K S m z l v b B B M B F ~ =.3.0.",
"( P N x j a e 8 6 6 6 e a g g f f p r i d M J E E T T P A Z A J E T Z j r 5 > 5 r M &.a.a.4.| K K P A Z Z P ' &.&.@.&.>.4.3.=...",
"S Z x h a r 5 : : > 5 9 p g x v v s 9 5 9 a n Z A P E ! Q Q Q E J Z x p 8 > > 5 r V &.a.a.1.! J J J K T ! =.w.s.a.a.0.0.0.1.| K ",
"v x j a r 6 2 : : 5 e p a j M S S m a 9 5 6 e p j N P ! ( ( ! P N x g p 6 > > 5 r V &.a.a.1.! J J J K ! -.w.a.f.f.e.-.X...| E K ",
"g h a r 2 : 5 6 8 r d v b D ~ ..X.] G x r 2 : 2 q s n Z S S S Z x h a r 2 - : 5 r N &.a.k.a.2.$.) W ! $.0.t.0.5.5.,.| J A A A A ",
"g a r 2 $ & q p p d m P ] &.1.5.6.0.7.Y x 9 : : 2 6 e a x b b x j a r 2 % $ - 5 p N &.h.b.m.v.g.0.:.,.0.t.0.$.| | | W S n x x v ",
"z a 6 $ . & w j j x P ,.a.c.x.g.e.0.0.-.F j e 6 5 2 > 5 e a j j h r 2 $ . @ , e p M &.h.b.N.A.B.v.l.k.h.e.-.( J A A A N x f f g ",
"x y , .   & t j j b ] a.b.Z.Z.l.2.| ..X.~ N j p r e 2 : 2 e f h p 2 % . . # q p f M @.a.h.c.Z.A.Z.B.B.l.2.( K A n x x x g f f h ",
"h q &     % q s j D &.h.b.M.n.a.$.J A A S Z x j x j r 5 5 6 e q 2 $ o . o , y g g V &.a.u.s.c.n.v.v.v.e.~ Z Z M z f f f g g g j ",
"9 2 #     @ 1 i n ~ 4.f.k.g.8.$.W A n x x x j x Z Z j r 5 1 - & # @ . o $ 6 a g g V &.a.u.t.s.a.7.:.:./ N j j j g f f f g g g g ",
"5 - @ . . X $ e Z -.w.r.r.1.) J A M j a a f j N P P m a 3 $ .   . . @ $ : 6 r p f M +.w.a.a.t.1.) J J A n x x z g g g g g g a p ",
"5 - @ @ $ $ X 0 P w.a.r.e.1.! A n j f a a j M P E P m y , .       @ & : 2 5 6 e a b P -.w.a.t.1.! J J S A A A M x g h g j a r 6 ",
"9 3 , , 6 : $ q Y k.x.h.a.1.! Z n j j z x m S ! ( S x q & @ X @ @ & 2 9 9 5 5 5 e d m ~ -.e.a.4. .J J T E ! ! S b g g g a r 5 : ",
"a y t y p 9 1 y ' c.M.v.h.1.! S Z Z Z A A S T ( ! Z a 2 - - - - - 2 r a a r 5 > 5 r s M ~ -.e.5. .K J T E ( ( S v j g a r 5 2 > ",
"j j j j j r 5 i I s.m.M.v.a.8.-.X.X.X.| ! T E E P n e > 5 9 9 8 8 e a j j p 6 : : 6 p z N ~ -.1.| E E T S S S N j p p r 5 2 5 9 ",
"j j j j j p 6 u Z -.s.c.m.M.n.h.e.6.6.,.| E E P N a 6 5 e a a p p a f j j p 6 : : 6 p g z N ~ | ( E E S M v v j r 8 6 5 2 5 r a ",
"g g g g g r 6 e m | ,.q.h.v.v.k.e.4.5.,.| E J N d e 8 e a g f g z x x v x d r 5 > 5 r a g x N A S S S N x f p e 5 : : > 5 e f j ",
"g g g j g r 6 e m ! |  .$.:.:.:.$. . .| ! P N d e 8 r a h f f z N S A A A M g e 5 2 5 e a j x x v v v x j p 9 5 > : : 5 r a g j ",
"a a a f f r 6 9 k A T E E K K E E E E E P N d e 6 e a j x x b D ~ X.X.o.X.~ Z g e 5 > 2 q y f j j g g g g a e 6 5 5 5 9 p f f a ",
"a a a h g p 6 5 7 d A E L K K K T E E J N g e 8 e p f x N P / &.2.6.6.0.0.1.~ N d e 5 - & < y j j g g g g f p p p r r p a f f a ",
"M V V V m d e : ; 7 k Z A A Z m m Z A N j e 8 e a g f x H -.a.k.h.e.0.5.5.2.| P N l p 1 $ % 3 y a p p a f f a a j v m M M M M B ",
"&.&.&.@.~ n e : ; > 7 a x l a e e s x j r 8 e a g f f b / a.m.m.k.0.$. . .| ! E P Z j e 1 & & , 6 9 9 e a f f j m P +.&.&.@.@.&.",
"s.a.e.1.~ n e > 2 5 5 e a p 8 : : 6 r e 6 6 p j g a j F 7.c.M.v.a.$.W K K J S S H Z j r 6 : $ @ $ - : 7 s b V U @.8.h.x.x.k.a.a.",
"f.r.,.) Z s 6 5 e y r p f p 6 : : 5 5 5 2 6 p j g j m ' h.M.b.a.-.W K K K S M c b j p 8 5 2 : $ @ @ - 7 x ~ 9.j.v.b.M.Z.V.m.k.u.",
"0.-.) A z r 9 e g b b c j p 6 : - : 2 > > 6 p f f x P 0.m.M.g.$.E K K T S N x f p e 5 > > 5 5 - $ @ = u Z 5.c.V.Z.m.v.v.v.h.w.2.",
" .| E Z z y r g M P P Z x p 6 - $ $ : > 4 6 p f f b / h.V.n.7.E J K T S M x g p 9 5 > > > 5 5 2 : = - p R u.x.x.c.g.7.-.-.$. .) ",
"K T T S m x x M S ! ! S v a e 1 @ @ $ 2 6 r a g j D &.k.m.h.$.J J E E A x a a p 9 5 5 6 8 9 9 6 5 : > h O.s.f.e.0.$.~ J J J J J ",
"J K T P S A A P T Q Q S v h a q % . . , e a g j M ~ 4.h.h.w. .J J E E A x a a a p r r p p a a r 6 2 9 c @.s.d.5.$.W J J J J J J ",
"T T K K K T E E T E E A x j j t &     & q f j v A X.5.a.t.1.) J J T T S Z B B M b v v v z g a r 8 e j I 7.a.w.-.! J J J J T ) ..",
"T T T K T T E E T E E A x j j t *     # 2 r a x S X.5.t.t.1.) J J K K ~ +.&.&.O.P S S A b a e 6 e j I 7.t.0.$.W T J J J J ! -.0.",
"T E ) | | W K J K E E S M x j r , O . @ - 5 e d Z ..5.t.r.4.$.E J T W -.w.a.e.1.| E J N j e 8 e s F 2.a.w.$.~ J J T ! |  .$.1.0.",
"J ) -.5.4.$.W J J T T T S Z x p 6 $ @ @ - > 5 i C ..6.t.r.q.4.$.W W $.0.a.e.,...( P Z j r 8 e s M / 0.e.-.~ J S J ! -.5.8.1.$.| ",
"J | 6.h.l.g.8.+.~ J J T E H b a 8 : $ & 2 6 6 i C X.0.s.h.k.l.e.-.$.0.a.0.-.! J S Z x r 5 5 r v S X.6.6.$.W W ! ) $.0.a.e.-.! J ",
"J | 6.k.m.M.n.y. .J J E E P b p 8 > - 2 e p p d Z | 6.h.v.M.M.c.e.0.e.0.-.! T S m x j r 5 5 p v S X.6.q.4.:.1.1.1.0.t.e.-.) T J ",
"T ~ O.7.h.M.B.l.2.| | | ( S l r 5 > > 8 a g j x N P =.a.b.Z.Z.c.t.4.4.-.! K E S v f p e 5 5 r x A | 6.s.h.k.k.h.s.t.0.-.! J J T ",
"E H N F ' w.h.h.e.5.5.1...Z p 5 2 > > 9 a j j g z M P ,.s.x.c.a.:.| | ! T E E S v p e 5 > 5 r x A | 5.h.n.M.M.n.h.0.$.W T J T T ",
"S M j d n P =.6.0.w.0.1.~ n 7 : : 5 6 e a g g f f g n H ' 1.4.-.| K K E E T J Z x p 6 2 5 e p v S ( -.e.v.Z.Z.v.t.$.W J J T E E ",
"v z h a d m P | X.o.$.) Z s 6 : > 6 r a g g g f f f j x b F ~ [ E K K E E J M x j p 6 5 e a f v S E [ -.a.c.c.a.-.W K J T T E E ",
"h h g f f z M A A A A N x p e 5 > 5 r f f g j x x x x g a g m A S S S S S Z x g g p 8 8 p g g x N S K ) -.5.5.$.! K T E E T S A ",
"f h g g f g j x x x x z g f a e 5 5 r f f j M A A A A n g a j x v v v b v x g g g p 8 8 p j g g z m S E [ | | W T K T E E S m x ",
"g g g g g g g g g g f f g g g a i p x B B F ~ X.X.X.X.~ N j f a p r p p p a g j j r 2 3 y j j f f z N A A S J E E T S S A N x f ",
"g g g g g g g g g f f f g g g j n A / &.&.&.2.5.5.0.0.-.~ N j r 9 5 5 5 6 e a j j t , , t j j h f g x x x m S E Q J M x x x g f ",
"g g g g g g a p p p f g g g j M ~ -.0.r.u.r.r.a.a.t.0.,.| J N j r 5 2 > > 5 r h j w & # 8 h j j j g g f f z Z P P Z x g f g g g ",
"g g g g j a e 6 6 e a g g j m P -.w.u.a.a.u.t.a.a.q.-.| W E J N j r 5 > > 2 5 p h t * @ 1 r h j j g g f f g x b b x j f f g g g ",
"j j j g a r 5 > 5 e a f f x H =.6.t.g.h.h.h.s.e.0.-.! K T E P Z j r 5 2 > > > 6 r q & + $ 2 r a a a g j j g a p p p p p p p p p ",
"j j j a r 5 > 5 e a h f f b ] 6.r.s.c.M.M.v.h.8.$.W T T E P Z j r 6 5 2 > > > 5 6 2 % . . & 5 9 9 r a j j a e 5 5 8 8 9 9 9 9 9 ",
"a a a r 5 2 5 e a g g a j F 7.h.k.l.M.A.Z.v.e.$.W K T E P M d e 5 : : 2 5 8 9 6 5 - @     @ & - - 2 e a a r 5 > : > > > > > 2 2 ",
"9 9 9 5 5 5 r a g g g j m / h.M.M.M.Z.Z.v.t.-.W K T E P N g e 5 > : : 5 r a a r 5 - @ . . o @ @ @ % 2 9 9 6 5 > > > > > > > > > ",
"> > > > > 9 a j j f f x P 5.n.A.A.Z.M.l.e.$.! K T T J N x p 9 5 5 6 7 p l c z a r 3 , & # @       @ = : : : 5 5 5 5 5 5 5 5 > : ",
"> > > > > 9 a j j a a b / a.M.A.A.M.c.e.$.W K E E J M z g a p r r a n Z S Z v h a p y q 2 $ . . @ - : : : 2 e p p r r p p e 5 : ",
"6 8 9 5 5 5 r a g g j F :.h.v.m.m.v.g.3.! S A A A M j a a h j v M F / o.[ S v g g j j a e 2 , 3 r s s a a j b V V V V D V b s e ",
"p p a r 6 2 5 e a x N ~ 4.s.h.h.h.g.a.3.| A n x x j g a a j M P +.2.0.3...A x g g j j f p a d N I O.' ' ' O.@.&.&.&.&.>.*.O.F m ",
"b x j a e 6 2 5 e l S | ,.0.w.e.e.e.0.-.) A n x x x x x b D ~ -.e.a.e.1.| S v a r p j x M F ~ -.w.a.a.u.u.u.a.a.a.a.w.0.0.1.| T ",
"P Z x h a r 5 > 5 a Z ( | $.4.e.e.4.$.! E J A Z Z Z Z H ' &.4.w.a.e.-.| Q S v p 8 e n P @.>.5.w.u.a.a.a.a.a.a.a.s.e.-.X...| ! E ",
"[ T Z x h r 6 : : e n S T | 4.a.t.1.! J J T T K K T ! =.0.a.s.t.0.-.( K J N g r e d S -.w.t.r.t.s.h.h.k.k.h.s.e.0.-.! K K E E E ",
"( ! T M p 6 2 > : 6 s m S | 4.a.t.1.! J J T T K K ! -.0.a.s.s.0.$.! E J N g e e k H $.w.u.r.e.s.c.m.M.M.M.b.h.8.$.! T J K T E E ",
"C Z Z x e > : 2 5 e p x A X.6.h.h.e.$.E J K ! | | $.8.a.a.r.0.-.( K J N g 9 2 e m X.0.s.h.h.h.c.Z.Z.n.z.l.h.e.-.! K T T J S S S ",
"i i i e 5 > > 5 r p f x A | 6.h.n.c.e.X.T ~ $.4.4.5.e.a.a.0.$.! E J N j e > : e C X.0.h.v.m.m.C.A.m.e.$.$.$...! E E E S N x x v ",
"> > > > > 5 6 r a g g j M P $.t.c.m.c.e.:.:.0.t.t.t.e.e.0.-.! J S N g e 5 : : e m | 6.g.b.M.M.m.v.e. .J S J K J S S S M g r r p ",
"> > > > > 6 r a g g g g l M P -.a.c.m.m.v.h.a.t.r.a.t.8.$.! T S M g e 5 > : > e m | 6.a.h.k.h.a.2. .T J J J K A m v x g r 5 5 6 ",
"5 5 5 2 > 9 a j j g g f f j Z W ,.g.M.A.S.M.h.e.q.t.t.2.) K K A x r 5 > > > > e m ..6.e.e.e.q.-.E S J T T E E A x f f r 5 > : > "
};
