/* XPM */
static char *wall_64[] = {
/* columns rows colors chars-per-pixel */
"32 32 79 1 ",
"  c #271E2E",
". c #2A2333",
"X c #2D2837",
"o c #2D253A",
"O c #2F293A",
"+ c #312C3E",
"@ c #332C43",
"# c #372D4B",
"$ c #382F4D",
"% c #353244",
"& c #373149",
"* c #39334D",
"= c #3B3A4D",
"- c #3C3451",
"; c #3E3A54",
": c #403C56",
"> c #423F58",
", c #44435B",
"< c #47495B",
"1 c #484A5E",
"2 c #4B4D62",
"3 c #4E5265",
"4 c #4E5669",
"5 c #4F596B",
"6 c #515667",
"7 c #525867",
"8 c #515768",
"9 c #525B6C",
"0 c #535E70",
"q c #55606F",
"w c #556372",
"e c #596674",
"r c #566877",
"t c #5A6976",
"y c #576B7A",
"u c #5A6C79",
"i c #57707F",
"p c #616F7B",
"a c #5B7683",
"s c #5D7A86",
"d c #5E7D89",
"f c #627A85",
"g c #627E89",
"h c #5F828D",
"j c #5F8590",
"k c #62828D",
"l c #68868E",
"z c #638691",
"x c #658A94",
"c c #6A8D95",
"v c #678F98",
"b c #688F98",
"n c #718D94",
"m c #6B929A",
"M c #72979C",
"N c #74989E",
"B c #799B9E",
"V c #769BA0",
"C c #7B9FA2",
"Z c #76A0A4",
"A c #7CA2A5",
"S c #7EA6A8",
"D c #7FA8A9",
"F c #81A5A6",
"G c #84A7A8",
"H c #83ABAB",
"J c #89AFAE",
"K c #89B0AF",
"L c #8CB4B2",
"P c #92B6B4",
"I c #93BAB6",
"U c #93BBB8",
"Y c #9BBEBA",
"T c #9DC1BC",
"R c #A2C4BF",
"E c #A4C7C0",
"W c #A5C8C2",
"Q c #A9CAC3",
"! c #B0D0C7",
/* pixels */
"rsw77779svAHAxa99w77gHHxjs96669e",
"hd9333770azmmjrrga3,rGHvhr9wwukB",
"dr3;->69524ahzhhdw;-9FHxhdxCFAAm",
"93;-:4tkkw;>5ajdr2$-0FLMxvDHHmzk",
"3=+<9kGJDMw;-,7q2*X*wGERPJDmksww",
"1X.1tFEYMka73::,*.X1eAUWRIcaw966",
"*. ;kHLMsw9ra4#X..&2eCLJBcyq7673",
"=+@=NPDkw9wdk4+ X&;;8kHHxdksq63:",
"331,CEPNzkkxs,**;22-;9lAvjkd92:-",
"773,kKYIHCvd8:135w5;-2ekzsw4:-:2",
"362,yvmMmmd5,69tklk9;;19wq4:-:26",
"ee9;,ihasd5,29kFHAAk5;%,336239ww",
"FBa;$,5,,3,24tGRJmxka2#@*>7pnGGF",
"Hc0,393-#$-37cTLvjsr4:-@o;gPEEYJ",
"xhw9dd9-o@;3tGYMhhw3:-::#,VUJMmx",
"jjdhxh01XX25kJJxjhuw9831:wFDvhjx",
"zvxjxkr2O.-3xHGvjmZBza4,0BScjxbC",
"xGHMjhd9&o&2kHLHMAHmd0>3kDMzmSAm",
"xARYmvk9-*24dHERHAmhr2;4zHJJHDmj",
"sucHDAs>$>670kGJMxxs7;;5zHEEHvjj",
"080gckw;-2399wedhhdr3;1qsmJJmzjh",
"8879996229tgxgw755973;47wsjxjhsr",
"7776266wgCAHHZk9,-;33%1770wddr97",
"772;,67kDLPLDmxs2-$;,O=247797333",
"82>:26eFUQEGbzs9;*-;*..&;22;---:",
":--289lE!QJbzd0>->43=O. .*----*$",
"---28tGQQLbdsw44wggq31*@;,29009,",
"92>:4gDLLDzrw0elAAx939rsBBBAGCNg",
"kr2->amHHvjdsxCHHmd42gCHLUULGmbv",
"dt>$:0zJJvjxmDLDvd4,aDPUWEYHmzjd",
">;-:29gHYJVAHJDvs9->gKEQYVmxds04",
"$--288wxLQRLKHmd0;$:dHPJmzjdr8:-"
};
